<svg width="46" height="45" viewBox="0 0 46 45" fill="none" xmlns="http://www.w3.org/2000/svg">
<g clip-path="url(#clip0_185_1310)">
<path fill-rule="evenodd" clip-rule="evenodd" d="M23.267 44.9987C27.0366 44.9505 30.832 44.9996 34.6046 44.9955C38.6275 44.991 42.035 43.8634 44.2639 40.5674C45.5931 38.6019 45.9859 36.3962 45.996 33.956C46.011 30.2262 45.9468 26.4776 45.9999 22.751C42.5171 22.8199 38.7449 22.9328 35.3204 23.4154C33.0006 23.7424 30.9106 24.3325 29.0393 25.5656C28.3756 26.0029 27.2224 26.9886 26.7762 27.556C26.5617 27.8288 26.3938 28.0336 26.179 28.3395C25.8078 28.868 25.489 29.4055 25.1702 30.0852C23.4726 33.704 23.2722 41.0312 23.267 44.9987Z" fill="#191B26"/>
<path fill-rule="evenodd" clip-rule="evenodd" d="M22.7109 44.9963C22.5674 33.7587 22.1949 25.0554 10.7696 23.4258C7.34804 22.9377 3.50506 22.8165 -0.000244141 22.7505C0.0499526 26.4407 -0.000244141 30.1571 0.0036673 33.8502C0.00725278 37.1427 0.671545 39.789 3.00081 42.0649C4.01289 43.0537 4.96076 43.6977 6.37801 44.2288C7.84186 44.7774 9.62092 44.9873 11.2875 44.995C15.094 45.0128 18.9044 44.9688 22.7105 44.9959L22.7109 44.9963Z" fill="#191B26"/>
<path fill-rule="evenodd" clip-rule="evenodd" d="M45.997 22.2145C45.9736 18.524 45.9954 14.8289 45.9909 11.138C45.9817 4.07908 41.9318 0.0216904 34.7125 0.00318977C30.9074 -0.00669852 27.0859 0.0459327 23.2833 0C23.312 4.22294 23.4447 10.9543 25.154 14.8152C26.2387 17.2656 28.2685 19.2822 30.7754 20.3523C34.8257 22.0815 41.5794 22.1284 45.9974 22.2142L45.997 22.2145Z" fill="#191B26"/>
<path fill-rule="evenodd" clip-rule="evenodd" d="M0.00313357 22.215C5.9847 22.0571 14.3552 22.2342 18.5469 18.1366C22.5291 14.2438 22.6249 6.7571 22.6966 0.00244141C18.9316 0.0247698 15.1609 0.00276038 11.3952 0.00339834C4.17207 0.00467425 0.0402922 3.94595 0.00932668 11.0327C-0.00697098 14.7593 0.0285579 18.4884 0.00280762 22.2147L0.00313357 22.215Z" fill="#191B26"/>
</g>
<defs>
<clipPath id="clip0_185_1310">
<rect width="46" height="45" fill="white"/>
</clipPath>
</defs>
</svg>
