<svg width="103" height="53" viewBox="0 0 103 53" fill="none" xmlns="http://www.w3.org/2000/svg">
<g clip-path="url(#clip0_185_1297)">
<path fill-rule="evenodd" clip-rule="evenodd" d="M12.5394 11.4614C5.22521 12.2914 -0.791963 18.5343 0.0854997 26.7059C0.848493 33.8111 7.48853 39.8888 15.8277 38.9345C22.8726 38.128 28.9994 31.7049 28.1101 23.7084C27.3149 16.5559 20.7613 10.5282 12.5394 11.4614Z" fill="black"/>
<path fill-rule="evenodd" clip-rule="evenodd" d="M91.2462 17.5947C91.5905 20.1776 89.8139 28.1709 90.5199 29.7282C91.6687 31.1012 92.8696 26.3421 93.4875 24.6616C93.9043 23.5281 94.2518 22.6105 94.6713 21.499C94.897 20.9005 95.0335 20.4991 95.2535 19.9069L96.0185 18.2221C95.6001 21.3711 94.3308 25.6764 93.5694 28.8746C93.145 30.657 91.1224 38.2532 91.1786 39.5119C91.2552 41.2283 93.1645 42.493 94.9382 41.4314C96.1093 40.7305 96.3538 38.3676 96.7395 36.7083L101.701 15.6164C102.089 13.9108 102.673 11.9732 102.948 10.3399C103.306 8.20688 101.78 6.73913 99.7483 7.39764C98.1747 7.90781 97.8924 10.0009 97.305 11.4902C95.581 15.8607 93.5886 21.8561 91.8475 25.7579C91.7257 21.8908 93.6183 9.89613 92.782 8.44477C91.931 6.96823 89.6017 6.86907 88.6456 8.30724C88.2916 8.8398 82.0793 34.8191 81.3363 38.6958C80.9827 40.541 82.2467 42.0512 84.0709 41.7681C85.9362 41.4786 86.135 39.6294 86.5363 37.901C87.0752 35.5776 91.3623 18.2205 91.2466 17.5947H91.2462Z" fill="black"/>
<path fill-rule="evenodd" clip-rule="evenodd" d="M56.6516 18.1357C56.4023 21.7609 51.2993 38.3308 51.9551 40.232C52.5368 41.9188 55.0234 42.2503 56.1408 40.9157C56.8374 40.0837 57.3311 36.9702 57.6326 35.6872L62.7702 13.7992C63.1259 12.3111 64.0787 9.60589 63.3536 8.41202C62.3645 6.78354 59.8503 6.96946 58.9549 8.66791C57.9006 10.6674 53.3096 24.7156 51.5408 28.462C51.6573 27.0614 54.7179 14.5569 55.2918 12.156C55.7579 10.2056 56.2618 7.85546 54.0237 7.3305C51.6081 6.76355 51.098 8.66031 50.6528 10.5511L46.7771 27.0146C45.9257 30.6394 45.0809 34.2302 44.225 37.8782C43.8245 39.5855 43.8791 41.7213 46.3009 41.7961C48.6408 41.8681 48.6836 39.6934 49.2869 37.9282C51.5543 31.2955 54.3724 24.6657 56.6504 18.1357H56.6516Z" fill="black"/>
<path fill-rule="evenodd" clip-rule="evenodd" d="M30.8627 53C31.2428 52.3907 36.8665 27.9774 37.5015 25.1787L42.4233 4.24951C43.6153 -0.661127 39.9522 -0.298487 38.9302 0.417997C37.691 1.28641 37.249 4.89962 36.8123 6.79798C36.2595 9.20052 35.7018 11.4443 35.1523 13.8333L28.5766 41.7942C28.025 44.1747 27.5142 46.4545 26.9182 48.827C26.4237 50.7966 26.6135 50.6311 28.0165 51.5526C28.8903 52.1268 29.8512 52.7065 30.8627 53Z" fill="black"/>
<path fill-rule="evenodd" clip-rule="evenodd" d="M45.329 7.40379C43.5569 7.97994 43.6319 9.1842 43.1883 11.0886L37.6571 34.5782C37.396 35.6745 36.6354 38.3122 36.6106 39.3213C36.5682 41.0621 38.1561 42.2508 39.8532 41.6579C41.3955 41.1189 41.468 39.6624 41.8855 37.9399L48.4579 9.79034C48.5215 8.12987 47.0762 6.83604 45.329 7.40379Z" fill="black"/>
<path fill-rule="evenodd" clip-rule="evenodd" d="M75.3024 7.35567C73.5512 7.84545 73.5943 9.06251 73.1369 10.9809L66.5453 39.1448C66.4137 40.8173 67.8142 42.1447 69.5863 41.7217C71.2707 41.3195 71.3441 39.8997 71.7624 38.1533C72.1319 36.61 72.4761 35.1026 72.8509 33.5233L78.3629 9.9901C78.5304 8.16091 77.0924 6.85469 75.302 7.35527L75.3024 7.35567Z" fill="black"/>
<path fill-rule="evenodd" clip-rule="evenodd" d="M67.8359 7.45283C66.0487 8.11094 66.2296 9.14089 65.7318 11.19C65.3587 12.7273 65.021 14.2758 64.6478 15.8211C63.8812 18.9981 63.1487 22.0836 62.4293 25.2526L59.1745 39.336C59.1504 40.9069 60.6524 42.1895 62.3275 41.6881C63.8751 41.2251 64.0498 39.6742 64.4291 38.0409C64.7969 36.4564 65.1692 34.9591 65.5228 33.4046C66.2378 30.2612 67.0126 27.1126 67.7434 23.9791L71.0178 9.807C71.0821 8.10455 69.5818 6.80872 67.8359 7.45204V7.45283Z" fill="black"/>
<path fill-rule="evenodd" clip-rule="evenodd" d="M82.6036 7.40367C80.8434 7.9966 80.9208 9.18048 80.4662 11.1L73.8954 39.322C73.8591 41.0392 75.4218 42.2419 77.1295 41.6602C78.6693 41.1356 78.765 39.6722 79.1675 37.9446L85.7371 9.79061C85.7823 8.13174 84.3634 6.81113 82.6036 7.40407V7.40367Z" fill="black"/>
<path fill-rule="evenodd" clip-rule="evenodd" d="M11.5308 27.909C10.8762 29.6086 8.61285 31.6661 7.91748 33.5137L11.1104 33.5097L15.2504 27.1753C13.557 26.2137 11.3691 24.9559 11.1259 22.7213C10.7751 19.4983 13.2234 19.1564 16.0831 19.1564V33.4409L19.0389 33.5241L19.0373 16.9186C14.9152 16.9186 10.9079 16.4436 8.97255 19.4063C8.04091 20.8317 7.97247 23.0195 8.59167 24.5972C9.21127 26.1761 10.4676 26.8283 11.5308 27.909Z" fill="white"/>
<path fill-rule="evenodd" clip-rule="evenodd" d="M67.3356 5.70682C71.6777 5.70682 76.0198 5.70682 80.3615 5.70682C82.3531 5.70682 85.1566 6.10225 86.1102 4.83121C86.7592 3.96639 86.9641 1.42871 83.9687 1.42871H68.7382C67.9153 1.42871 67.4814 4.84201 67.3352 5.70682H67.3356Z" fill="black"/>
</g>
<defs>
<clipPath id="clip0_185_1297">
<rect width="103" height="53" fill="white"/>
</clipPath>
</defs>
</svg>
