<svg width="231" height="32" viewBox="0 0 231 32" fill="none" xmlns="http://www.w3.org/2000/svg">
<path d="M214.557 23.9819C215.627 23.8506 217.021 22.8348 218.74 20.9439C220.459 19.0544 222.246 16.5298 224.107 13.3833C223.878 13.1608 223.726 12.9209 223.628 12.6583C223.531 12.3956 223.487 12.0928 223.487 11.7444C223.487 10.876 223.822 10.1282 224.489 9.49975C225.154 8.87796 225.956 8.56304 226.89 8.56304C227.448 8.56304 227.892 8.71179 228.216 9.00795C228.546 9.30008 228.712 9.69942 228.712 10.2019C228.712 10.6696 228.575 11.144 228.296 11.6238C228.017 12.1089 227.602 12.5833 227.045 13.0509C228.017 14.1418 228.724 15.1522 229.156 16.0715C229.589 16.9907 229.805 17.9382 229.805 18.9097C229.805 19.7888 229.652 20.6451 229.35 21.48C229.043 22.3081 228.627 23.0103 228.097 23.5812C228.348 23.7125 228.644 23.8157 228.973 23.8787C229.309 23.947 229.708 23.9819 230.174 23.9819H230.521L229.872 26.2426H229.389C228.769 26.2426 228.177 26.1796 227.607 26.0603C227.038 25.9344 226.475 25.7454 225.906 25.4895C225.228 25.7695 224.574 25.9746 223.948 26.1113C223.316 26.2426 222.73 26.3109 222.183 26.3109C221.318 26.3109 220.492 26.1675 219.714 25.8821C218.939 25.5967 218.291 25.2027 217.779 24.7002C217.243 25.1116 216.658 25.4479 216.009 25.7052C215.371 25.9598 214.68 26.1367 213.939 26.2399L213.937 26.2412H213.925H213.555C212.304 26.2412 211.336 26.0644 210.648 25.7052C209.953 25.3514 209.51 24.7966 209.311 24.0489C208.576 24.7283 207.791 25.2536 206.955 25.6194C206.124 25.9906 205.259 26.197 204.371 26.2412L205.002 23.9805C205.583 23.9805 206.198 23.809 206.858 23.4727C207.512 23.1296 208.252 22.5936 209.077 21.8565C209.442 19.3211 209.953 16.712 210.602 14.0171C211.252 11.3222 212.02 8.66087 212.896 6.02897C213.63 3.85404 214.318 2.35182 214.955 1.5183C215.598 0.690136 216.332 0.273374 217.17 0.273374C217.728 0.273374 218.182 0.495826 218.547 0.940729C218.904 1.38697 219.087 1.9632 219.087 2.6654C219.087 3.53376 218.763 4.64066 218.115 5.98877C217.461 7.33018 216.585 8.69571 215.468 10.0773C214.615 12.8352 213.925 15.3639 213.414 17.6715C212.896 19.9845 212.635 21.5148 212.635 22.2733C212.635 22.879 212.789 23.3132 213.084 23.5812C213.382 23.8452 213.872 23.9765 214.557 23.9805V23.9819ZM4.61577 12.6369C4.42211 13.0255 4.17236 13.3216 3.85315 13.5159C3.53528 13.7103 3.15865 13.8067 2.72592 13.8067C1.85512 13.8067 1.18333 13.453 0.711865 12.7508C0.239069 12.0486 0 11.0382 0 9.72488C0 7.05815 0.825389 4.76931 2.47617 2.86105C4.12695 0.954129 6.10628 0 8.41683 0C10.0102 0 11.2509 0.393981 12.1444 1.1873C13.0379 1.98062 13.488 3.0768 13.488 4.48789C13.488 5.25307 13.3518 6.25812 13.0727 7.49769C12.7935 8.73725 12.3501 10.3185 11.7411 12.2375C14.2453 7.76034 16.3448 4.63128 18.0517 2.85033C19.7532 1.06267 21.4321 0.172869 23.0882 0.172869C24.0779 0.172869 24.8472 0.486445 25.3988 1.10958C25.9503 1.73271 26.2241 2.6118 26.2241 3.73611C26.2241 5.12979 25.3533 7.75632 23.6064 11.6157L23.2191 12.4372C26.116 7.97207 28.5521 4.78539 30.526 2.87311C32.4947 0.96083 34.3044 0.00134007 35.9498 0.00134007C36.8607 0.00134007 37.606 0.309556 38.1869 0.932688C38.7733 1.54912 39.0631 2.34244 39.0631 3.31399C39.0631 4.70096 38.1295 7.61293 36.269 12.0499L35.819 13.1233L35.5518 13.7746C33.6794 18.2625 32.7458 20.9171 32.7458 21.7453C32.7458 22.5051 33.0022 23.0586 33.5137 23.407C34.0253 23.7554 34.8627 23.9497 36.018 23.9832L36.0313 24.014L36.0407 23.9832C36.6497 23.9484 37.1959 23.8747 37.6794 23.7487C38.1629 23.6281 38.601 23.4566 38.9883 23.2355C38.9482 23.001 38.9135 22.7557 38.8908 22.5038C38.8681 22.2586 38.8561 21.9838 38.8561 21.693C38.8561 20.7684 39.0551 19.758 39.4531 18.6551C39.8578 17.5589 40.4147 16.4788 41.1372 15.4175C42.2525 13.8134 43.4825 12.5913 44.8315 11.7457C46.1857 10.9068 47.5801 10.4834 49.0252 10.4834C49.7477 10.4834 50.3688 10.5919 50.8923 10.8036C51.4159 11.0154 51.9114 11.3517 52.3775 11.8194L52.6112 11.0663C52.7541 10.604 52.901 10.3132 53.044 10.1926C53.1869 10.0666 53.3965 10.0036 53.6757 10.0036C54.4436 10.0036 55.1154 10.1349 55.6844 10.3976C56.26 10.6656 56.5432 10.9738 56.5432 11.3343C56.5432 11.4482 56.3041 11.9682 55.826 12.9049C55.3478 13.8469 54.9271 14.7367 54.5625 15.5823C53.8279 17.2668 53.2763 18.7114 52.901 19.9108C52.5311 21.1101 52.3428 22.0294 52.3428 22.674C52.3428 23.1256 52.479 23.4338 52.7581 23.6053C53.0333 23.7742 53.653 23.9042 54.6213 23.9953L54.6253 23.9819C56.0023 23.7474 57.2657 22.8053 58.4103 21.161C59.5536 19.5168 60.8745 16.6504 62.377 12.5672C62.1206 12.3099 61.9322 12.0244 61.808 11.7109C61.6878 11.3973 61.6264 11.0435 61.6264 10.6428C61.6264 9.83745 61.8481 9.1701 62.2862 8.63809C62.7242 8.10742 63.2772 7.84477 63.9423 7.84477C64.5567 7.84477 65.0415 8.01094 65.3941 8.34729C65.752 8.68365 65.9296 9.12989 65.9296 9.68334C65.9296 9.95136 65.9016 10.2033 65.8442 10.4311C65.7934 10.6589 65.7013 10.8934 65.577 11.1279C66.146 11.4817 66.8806 11.9105 67.7794 12.4131C69.4128 13.2989 70.2329 14.1712 70.2329 15.045C70.2329 15.782 69.7895 17.0778 68.9013 18.9446C68.0131 20.8059 67.5697 22.0736 67.5697 22.7423C67.5697 23.1417 67.7233 23.4271 68.0252 23.5879C68.3324 23.7474 69.123 23.8854 70.3985 23.9993L70.4052 24.0194L70.4159 23.9819C71.4857 23.8506 72.88 22.8348 74.5989 20.9439C76.3178 19.0544 78.1048 16.5298 79.9653 13.3833C79.7382 13.1608 79.5846 12.9209 79.4871 12.6583C79.3896 12.3956 79.3442 12.0928 79.3442 11.7444C79.3442 10.876 79.6795 10.1282 80.3459 9.49975C81.011 8.87796 81.8137 8.56304 82.7473 8.56304C83.3055 8.56304 83.749 8.71179 84.0735 9.00795C84.4034 9.30008 84.5677 9.69942 84.5677 10.2019C84.5677 10.6696 84.4314 11.144 84.1523 11.6238C83.8732 12.1089 83.4578 12.5833 82.9009 13.0509C83.8732 14.1418 84.5797 15.1522 85.0124 16.0715C85.4452 16.9907 85.6615 17.9382 85.6615 18.9097C85.6615 19.7888 85.5079 20.6451 85.2061 21.48C84.8989 22.3081 84.4835 23.0103 83.9547 23.5812C84.2057 23.7125 84.5009 23.8157 84.8308 23.8787C85.166 23.947 85.5654 23.9819 86.0315 23.9819H86.3787L86.3854 23.998L86.3907 23.9819C87.5113 23.9135 88.4502 23.4284 89.1968 22.5266C89.9474 21.6247 90.682 20.0595 91.3938 17.8269L94.877 6.92146C95.1281 6.13886 95.4059 5.16865 95.7078 4.00949C96.2313 1.99938 97.1355 0.994331 98.4217 0.994331C99.3152 0.994331 99.9189 1.05195 100.231 1.17122C100.551 1.28513 100.71 1.4915 100.71 1.78229C100.71 2.09051 100.493 2.78198 100.055 3.83796C99.8788 4.26678 99.7479 4.59242 99.6571 4.82559L94.2226 18.6497C95.9588 15.8289 97.5455 13.7679 98.9866 12.4653C100.426 11.1695 101.831 10.5182 103.21 10.5182C103.91 10.5182 104.456 10.7072 104.843 11.0784C105.236 11.4549 105.429 11.9749 105.429 12.6422C105.429 13.39 104.78 15.388 103.484 18.6497L103.086 19.6669C102.806 20.3342 102.59 20.9627 102.426 21.5389C102.267 22.1219 102.187 22.5319 102.187 22.7772C102.187 23.1886 102.34 23.4794 102.653 23.6455C102.96 23.8171 103.58 23.9256 104.497 23.9819L104.509 24.0194L104.52 23.9819C105.129 23.947 105.675 23.8733 106.159 23.7474C106.642 23.6268 107.08 23.4552 107.468 23.2341C107.427 22.9996 107.394 22.7544 107.37 22.5024C107.347 22.2572 107.335 21.9825 107.335 21.6917C107.335 20.7671 107.534 19.7566 107.934 18.6538C108.338 17.5576 108.895 16.4775 109.618 15.4162C110.733 13.8121 111.962 12.59 113.312 11.7444C114.666 10.9055 116.061 10.482 117.506 10.482C118.228 10.482 118.849 10.5906 119.372 10.8023C119.895 11.014 120.391 11.3504 120.857 11.8181L121.09 11.065C121.233 10.6026 121.38 10.3118 121.523 10.1912C121.666 10.0653 121.876 10.0023 122.155 10.0023C122.923 10.0023 123.595 10.1336 124.164 10.3963C124.738 10.6643 125.022 10.9725 125.022 11.333C125.022 11.4469 124.783 11.9668 124.305 12.9035C123.827 13.8456 123.406 14.7354 123.042 15.581C122.307 17.2655 121.756 18.7101 121.38 19.9094C121.01 21.1088 120.823 22.0281 120.823 22.6726C120.823 23.1242 120.96 23.4325 121.239 23.604C121.515 23.7742 122.14 23.9042 123.118 23.9966L123.122 23.9805C123.703 23.9805 124.317 23.809 124.977 23.4727C125.631 23.1296 126.371 22.5936 127.197 21.8565C127.561 19.3211 128.073 16.712 128.722 14.0171C129.371 11.3222 130.139 8.66087 131.015 6.02897C131.75 3.85404 132.438 2.35182 133.075 1.5183C133.717 0.690136 134.452 0.273374 135.289 0.273374C135.846 0.273374 136.301 0.495826 136.666 0.940729C137.024 1.38697 137.207 1.9632 137.207 2.6654C137.207 3.53376 136.882 4.64066 136.235 5.98877C135.58 7.33018 134.704 8.69571 133.589 10.0773C132.735 12.8352 132.046 15.3639 131.535 17.6715C131.017 19.9845 130.755 21.5148 130.755 22.2733C130.755 22.879 130.908 23.3132 131.205 23.5812C131.503 23.8452 131.993 23.9765 132.678 23.9805H132.705H132.706C133.278 23.9752 133.883 23.8037 134.532 23.4727C135.186 23.1296 135.926 22.5936 136.752 21.8565C137.116 19.3211 137.628 16.712 138.277 14.0171C138.926 11.3222 139.694 8.66087 140.57 6.02897C141.305 3.85404 141.992 2.35182 142.629 1.5183C143.272 0.690136 144.006 0.273374 144.844 0.273374C145.401 0.273374 145.856 0.495826 146.221 0.940729C146.579 1.38697 146.762 1.9632 146.762 2.6654C146.762 3.53376 146.437 4.64066 145.788 5.98877C145.134 7.33018 144.257 8.69571 143.142 10.0773C142.289 12.8352 141.6 15.3639 141.088 17.6715C140.57 19.9845 140.308 21.5148 140.308 22.2733C140.308 22.879 140.462 23.3132 140.758 23.5812C141.06 23.8492 141.561 23.9805 142.261 23.9805L141.612 26.2412H141.231C139.98 26.2412 139.011 26.0644 138.324 25.7052C137.629 25.3514 137.186 24.7966 136.987 24.0489C136.252 24.7283 135.467 25.2536 134.631 25.6194C133.804 25.9893 132.942 26.1943 132.06 26.2412H132.048H131.678C130.426 26.2412 129.458 26.0644 128.77 25.7052C128.076 25.3514 127.632 24.7966 127.433 24.0489C126.699 24.7283 125.913 25.2536 125.077 25.6194C124.246 25.9906 123.381 26.197 122.493 26.2412H122.191C120.449 26.2412 119.221 26.059 118.509 25.6878C117.797 25.322 117.444 24.6948 117.444 23.8144C117.444 23.4258 117.512 22.946 117.643 22.3751C117.78 21.8096 118.001 21.0793 118.31 20.1828C117.12 22.3068 115.942 23.8546 114.776 24.8368C113.609 25.8191 112.357 26.3096 111.02 26.3096C110.388 26.3096 109.837 26.2185 109.364 26.0416C108.891 25.8647 108.521 25.602 108.254 25.2536C107.696 25.5565 107.066 25.7843 106.354 25.9504C105.647 26.1086 104.816 26.2051 103.867 26.2412H103.849H103.485C101.658 26.2412 100.321 25.996 99.4674 25.5042C98.6193 25.0137 98.1933 24.2432 98.1933 23.1979C98.1933 22.7182 98.3522 21.9812 98.6768 20.9882C99.0013 19.9952 99.4901 18.7275 100.145 17.1904L100.275 16.8715C100.844 15.593 101.129 14.8332 101.129 14.5987C101.129 14.4044 101.083 14.2677 100.986 14.1766C100.895 14.0908 100.747 14.0453 100.548 14.0453C99.8881 14.0453 98.8744 14.8788 97.5028 16.5512C96.1311 18.2236 94.9251 20.2565 93.8954 22.6432C93.6844 23.1229 93.4573 23.7045 93.2129 24.4013C92.7468 25.6744 91.8359 26.3082 90.4816 26.3082C90.0369 26.3082 89.7244 26.268 89.5481 26.1823C89.3718 26.0965 89.2809 25.9478 89.2809 25.7374C89.2809 25.6288 89.309 25.4801 89.3718 25.2925C89.4345 25.1102 89.5307 24.8757 89.6616 24.601C89.1728 25.1035 88.6025 25.4921 87.9547 25.7602C87.3003 26.0349 86.5657 26.1943 85.7417 26.2399L85.743 26.2332L85.7363 26.2399H85.2515C84.6318 26.2399 84.0401 26.1769 83.4698 26.0576C82.9009 25.9317 82.3373 25.7427 81.7683 25.4868C81.0912 25.7669 80.4367 25.9719 79.8103 26.1086C79.1786 26.2399 78.5923 26.3082 78.046 26.3082C77.1806 26.3082 76.3552 26.1649 75.5765 25.8794C74.8019 25.594 74.1542 25.2 73.6413 24.6975C73.1071 25.1089 72.5207 25.4452 71.8716 25.7025C71.2292 25.9598 70.5347 26.1367 69.7895 26.2386L69.8082 26.1716L69.7547 26.2386H69.2539C67.2505 26.2386 65.8108 26.004 64.9346 25.5417C64.0518 25.0794 63.6137 24.3303 63.6137 23.2917C63.6137 22.3671 64.0345 20.9908 64.8772 19.1643C65.7133 17.3432 66.1353 16.172 66.1353 15.6587C66.1353 15.4135 65.9924 15.1629 65.7026 14.8989C65.4114 14.6362 64.9226 14.3052 64.2348 13.8992C62.7443 18.2209 61.207 21.3272 59.6244 23.218C58.051 25.0982 56.1852 26.1019 54.0216 26.2359L54.0189 26.2386H53.9842H53.7171C51.9755 26.2386 50.7467 26.0563 50.0349 25.6851C49.323 25.3193 48.9704 24.6921 48.9704 23.8117C48.9704 23.4231 49.0385 22.9433 49.1694 22.3725C49.3057 21.8069 49.5274 21.0766 49.8359 20.1801C48.6459 22.3041 47.4692 23.8519 46.3019 24.8342C45.1346 25.8164 43.8832 26.3069 42.5463 26.3069C41.9146 26.3069 41.363 26.2158 40.8902 26.0389C40.4174 25.862 40.0474 25.5993 39.7803 25.2509C39.222 25.5538 38.5903 25.7816 37.8798 25.9478C37.1679 26.1072 36.3318 26.2051 35.3755 26.2386H34.88C32.6777 26.2386 31.067 25.8727 30.0599 25.1424C29.0529 24.412 28.5521 23.2582 28.5521 21.6877C28.5521 20.3061 29.6552 17.0283 31.8696 11.8663C32.3358 10.7809 32.695 9.94734 32.9501 9.35369L33.1211 8.97177C34.1054 6.64809 34.5942 5.22091 34.5942 4.68354C34.5942 4.43831 34.5141 4.23194 34.3605 4.05505C34.2069 3.88352 34.0199 3.79776 33.8089 3.79776C32.9555 3.79776 31.3675 5.20215 29.0516 8.00558C26.7303 10.809 24.6415 14.0922 22.7864 17.8497C22.2 19.0089 21.6364 20.1962 21.0955 21.4183C20.5546 22.6405 20.0484 23.88 19.5703 25.141C19.3766 25.6489 19.1429 25.9692 18.8597 26.1059C18.5753 26.2372 18.1145 26.3056 17.4828 26.3056C16.5265 26.3056 15.8213 26.2252 15.3659 26.0603C14.9051 25.9009 14.6767 25.6543 14.6767 25.3179C14.6767 25.129 15.0921 24.1132 15.9121 22.2854C16.5612 20.818 17.0954 19.6012 17.5175 18.631C19.0774 15.0396 20.2888 12.0593 21.165 9.68334C22.0358 7.31276 22.4738 5.80652 22.4738 5.17267C22.4738 4.82425 22.371 4.53882 22.172 4.311C21.973 4.08185 21.7219 3.96795 21.4201 3.96795C20.3556 3.96795 18.8758 5.21287 16.9873 7.70272C15.0974 10.1979 13.2597 13.3793 11.4833 17.2614C10.8182 18.7234 10.1464 20.3557 9.47996 22.1487C8.8135 23.947 8.43286 24.9575 8.33002 25.1812C8.10831 25.6945 7.86925 26.0148 7.61281 26.1287C7.36172 26.2493 6.8502 26.3056 6.08224 26.3056C5.29692 26.3056 4.68255 26.2198 4.24982 26.0536C3.81709 25.8875 3.60073 25.6543 3.60073 25.3514C3.60073 25.0379 4.01075 23.8961 4.83614 21.9142C5.65619 19.9389 6.33333 18.237 6.86756 16.8098C7.7437 14.5264 8.44355 12.3675 8.96175 10.34C9.47996 8.31245 9.73505 6.82765 9.73505 5.89229C9.73505 5.12711 9.54807 4.53345 9.17678 4.11669C8.80148 3.69993 8.27259 3.4882 7.58343 3.4882C6.42815 3.4882 5.43181 4.07649 4.60108 5.25307C3.765 6.42965 3.34964 7.82869 3.34964 9.45553C3.34964 10.147 3.46316 10.7809 3.69021 11.3517C3.9186 11.928 4.22578 12.3514 4.61844 12.6302L4.61577 12.6369ZM165.302 19.9858C164.102 24.3022 162.855 27.3857 161.557 29.2309C160.266 31.0749 158.735 32.0009 156.964 32.0009C155.678 32.0009 154.659 31.4581 153.914 30.3794C153.168 29.2939 152.799 27.793 152.799 25.8741C152.799 23.4191 153.367 20.5406 154.505 17.2293C155.643 13.9233 157.151 10.8733 159.018 8.08732C160.805 5.40986 162.695 3.3944 164.692 2.03423C166.69 0.680755 168.767 0.00134007 170.934 0.00134007C172.966 0.00134007 174.577 0.663334 175.755 1.99402C176.932 3.31801 177.519 5.14587 177.519 7.46419C177.519 8.72653 177.337 10.0277 176.978 11.3758C176.613 12.7173 176.09 14.0198 175.402 15.2808C174.514 16.9425 173.439 18.2102 172.186 19.0786C170.929 19.9523 169.557 20.3865 168.066 20.3865C167.746 20.3865 167.354 20.3516 166.893 20.2833C166.432 20.2203 165.903 20.1171 165.3 19.9858H165.302ZM187.617 15.8343C187.059 15.7485 186.633 15.5368 186.343 15.2178C186.052 14.8922 185.91 14.458 185.91 13.9099C185.91 13.122 186.132 12.4653 186.575 11.9454C187.024 11.4254 187.589 11.1681 188.265 11.1681C189.01 11.1681 189.591 11.471 190.001 12.07C190.417 12.6757 190.621 13.5146 190.621 14.6001C190.621 15.9482 190.404 17.3244 189.978 18.7235C189.551 20.1225 188.949 21.4076 188.169 22.5829C187.343 23.8278 186.462 24.7645 185.518 25.3809C184.573 26.0027 183.554 26.3123 182.462 26.3123C181.671 26.3123 180.987 26.2091 180.402 26.004C179.816 25.7923 179.322 25.4787 178.905 25.0566C178.176 25.4225 177.413 25.7079 176.629 25.9022C175.849 26.0965 174.991 26.2104 174.057 26.2439L174.722 23.9832C175.331 23.9484 175.877 23.8693 176.361 23.7487C176.844 23.6227 177.282 23.4512 177.67 23.2288C177.539 22.8576 177.436 22.4743 177.375 22.0642C177.306 21.6582 177.272 21.2254 177.272 20.7684C177.272 19.5302 177.521 18.2504 178.029 16.9251C178.535 15.5944 179.23 14.4191 180.106 13.3967C180.874 12.4774 181.79 11.735 182.861 11.1695C183.931 10.5986 184.921 10.3132 185.849 10.3132C186.093 10.3132 186.282 10.3641 186.424 10.4726C186.561 10.5758 186.629 10.7179 186.629 10.9001C186.629 11.1454 186.362 11.534 185.821 12.0593C185.28 12.59 184.87 13.0362 184.58 13.3953C183.437 14.8279 182.554 16.2899 181.945 17.7626C181.336 19.2421 181.029 20.629 181.029 21.9195C181.029 22.5359 181.165 23.0157 181.439 23.3588C181.713 23.7072 182.088 23.8787 182.566 23.8787C183.709 23.8787 184.826 23.0559 185.918 21.4116C187.011 19.7674 187.574 17.906 187.62 15.8329L187.617 15.8343ZM202.772 15.8343C202.214 15.7485 201.788 15.5368 201.498 15.2178C201.207 14.8922 201.065 14.458 201.065 13.9099C201.065 13.122 201.287 12.4653 201.73 11.9454C202.179 11.4254 202.744 11.1681 203.421 11.1681C204.166 11.1681 204.747 11.471 205.156 12.07C205.571 12.6757 205.776 13.5146 205.776 14.6001C205.776 15.9482 205.559 17.3244 205.133 18.7235C204.706 20.1225 204.104 21.4076 203.324 22.5829C202.498 23.8278 201.617 24.7645 200.672 25.3809C199.728 26.0027 198.709 26.3123 197.617 26.3123C196.826 26.3123 196.143 26.2091 195.557 26.004C194.971 25.7923 194.477 25.4787 194.06 25.0566C193.332 25.4225 192.569 25.7079 191.784 25.9022C191.004 26.0965 190.145 26.2104 189.212 26.2439L189.877 23.9832C190.486 23.9484 191.032 23.8693 191.516 23.7487C191.999 23.6227 192.437 23.4512 192.825 23.2288C192.694 22.8576 192.591 22.4743 192.528 22.0642C192.46 21.6582 192.425 21.2254 192.425 20.7684C192.425 19.5302 192.675 18.2504 193.183 16.9251C193.689 15.5944 194.383 14.4191 195.259 13.3967C196.027 12.4774 196.943 11.735 198.013 11.1695C199.083 10.5986 200.073 10.3132 201.001 10.3132C201.245 10.3132 201.434 10.3641 201.575 10.4726C201.712 10.5758 201.78 10.7179 201.78 10.9001C201.78 11.1454 201.513 11.534 200.972 12.0593C200.431 12.59 200.021 13.0362 199.731 13.3953C198.588 14.8279 197.705 16.2899 197.096 17.7626C196.487 19.2421 196.18 20.629 196.18 21.9195C196.18 22.5359 196.316 23.0157 196.59 23.3588C196.863 23.7072 197.239 23.8787 197.717 23.8787C198.86 23.8787 199.977 23.0559 201.069 21.4116C202.162 19.7674 202.725 17.906 202.771 15.8329L202.772 15.8343ZM165.855 17.2333C165.963 17.244 166.077 17.2561 166.185 17.2614C166.299 17.2668 166.424 17.2668 166.572 17.2668C168.274 17.2668 169.748 16.3073 171 14.383C172.251 12.4586 172.878 10.1698 172.878 7.50305C172.878 6.10938 172.644 5.07082 172.178 4.38471C171.712 3.69993 171.005 3.35687 170.061 3.35687C169.094 3.35687 167.984 3.7857 166.731 4.64736C165.485 5.50367 164.29 6.66283 163.157 8.12484C162.304 9.22638 161.501 10.4887 160.756 11.9052C160.011 13.3216 159.322 14.8976 158.69 16.6222C157.99 18.501 157.444 20.2136 157.062 21.7788C156.681 23.3373 156.486 24.5876 156.486 25.5243C156.486 26.2372 156.577 26.7746 156.76 27.1404C156.948 27.5009 157.221 27.6832 157.585 27.6832C158.53 27.6832 159.435 26.3069 160.306 23.5611C161.171 20.8086 161.774 17.2172 162.121 12.7749C162.133 12.6838 162.149 12.5471 162.172 12.3581C162.245 11.341 162.428 10.6844 162.701 10.3829C163.048 10.0117 163.543 9.65788 164.191 9.32152C164.845 8.97847 165.278 8.80828 165.5 8.80828C165.802 8.80828 166.001 8.95033 166.102 9.2304C166.2 9.50377 166.251 10.2355 166.251 11.4174V11.9199C166.251 12.7762 166.216 13.6499 166.148 14.5357C166.085 15.4202 165.982 16.3234 165.851 17.236L165.855 17.2333ZM120.003 13.8416C119.701 13.6071 119.406 13.4355 119.11 13.3216C118.815 13.2131 118.518 13.1568 118.216 13.1568C117.557 13.1568 116.805 13.4422 115.951 14.0131C115.103 14.5786 114.29 15.3545 113.51 16.3368C112.798 17.2387 112.229 18.1981 111.814 19.2086C111.398 20.219 111.187 21.1048 111.187 21.8646C111.187 22.4073 111.285 22.812 111.472 23.0747C111.66 23.3373 111.95 23.4686 112.337 23.4686C113.43 23.4686 114.625 22.6525 115.928 21.0243C117.232 19.3975 118.586 16.9988 120.003 13.8416ZM76.4059 22.024C76.8267 22.1782 77.1913 22.4234 77.4984 22.7557C77.8056 23.0814 78.05 23.4928 78.2437 23.9832C79.2855 23.7715 80.1108 23.2408 80.7025 22.3952C81.2995 21.5443 81.596 20.4709 81.596 19.1804C81.596 18.6779 81.5453 18.1405 81.4478 17.5817C81.3449 17.0162 81.1913 16.3877 80.9763 15.6976C80.5436 16.6571 79.9345 17.6849 79.1439 18.7757C78.3532 19.8719 77.4424 20.9506 76.4073 22.024H76.4059ZM51.5307 13.8416C51.2289 13.6071 50.9324 13.4355 50.6372 13.3216C50.3407 13.2131 50.0456 13.1568 49.7437 13.1568C49.084 13.1568 48.332 13.4422 47.4786 14.0131C46.6305 14.5786 45.8171 15.3545 45.0371 16.3368C44.3253 17.2387 43.7563 18.1981 43.341 19.2086C42.9256 20.219 42.7146 21.1048 42.7146 21.8646C42.7146 22.4073 42.8121 22.812 42.999 23.0747C43.1874 23.3373 43.4772 23.4686 43.8645 23.4686C44.957 23.4686 46.1524 22.6525 47.4559 21.0243C48.7594 19.3975 50.1137 16.9988 51.5307 13.8416ZM220.549 22.024C220.969 22.1782 221.334 22.4234 221.641 22.7557C221.948 23.0814 222.193 23.4928 222.386 23.9832C223.428 23.7715 224.252 23.2408 224.845 22.3952C225.442 21.5443 225.739 20.4709 225.739 19.1804C225.739 18.6779 225.688 18.1405 225.59 17.5817C225.488 17.0162 225.334 16.3877 225.119 15.6976C224.686 16.6571 224.077 17.6849 223.286 18.7757C222.496 19.8719 221.585 20.9506 220.55 22.024H220.549Z" fill="#727271"/>
</svg>
