<svg width="596" height="325" viewBox="0 0 596 325" fill="none" xmlns="http://www.w3.org/2000/svg">
<path d="M326.469 254.591C331.09 253.236 335.62 251.64 340.134 249.954C346.032 247.751 351.986 245.709 357.856 243.44C364.041 241.053 370.271 238.771 376.3 236.007C380.245 234.828 383.831 232.866 387.462 230.989C393.903 227.65 400.29 224.221 406.505 220.468C411.317 217.772 416.029 214.915 420.579 211.793C424.153 209.622 427.704 207.408 431.035 204.872C437.277 200.419 444.021 196.703 449.962 191.818C451.959 190.776 453.901 189.665 455.343 187.877C458.03 185.73 461.146 184.164 463.697 181.833C466.997 179.209 471.079 177.703 473.923 174.424C475.079 173.096 476.702 172.535 478.518 172.748C481.845 174.261 485.353 175.205 488.862 176.207C491.713 177.031 494.278 178.776 497.367 178.933L497.904 179.548C500.927 180.822 503.942 182.104 506.963 183.369C509.437 184.404 511.919 185.41 514.396 186.442C515.034 186.704 515.65 187.212 516.282 186.444L516.679 186.452C516.571 187.956 518.04 187.521 518.668 187.808C521.533 189.124 524.533 190.14 527.497 191.253C527.922 191.412 528.33 191.323 528.683 191.025C530.039 193.477 532.752 193.57 534.928 194.584C534.887 197.256 534.801 197.247 532.1 197.354C530.284 197.432 528.623 198.456 526.687 198.224C525.769 198.113 524.726 197.36 523.803 198.284C521.778 198.378 519.696 198.243 517.909 199.434C517.15 199.945 516.372 199.353 515.653 199.677C514.81 199.339 514.002 199.233 513.082 199.5C510.924 200.125 508.743 200.683 506.552 201.178C505.68 201.378 504.963 201.678 504.458 202.448C504.246 202.78 503.969 203.357 503.535 203.185C500.508 201.993 498.031 203.825 495.365 204.599C486.441 207.421 477.429 209.981 468.953 214.042C465.18 215.703 461.406 217.359 457.634 219.02C456.088 219.176 454.88 220.024 453.707 220.944C453.259 221.207 452.881 220.4 452.426 220.865C450.997 220.929 450.395 222.241 449.364 222.915C448.287 222.764 447.305 223.195 446.299 223.442C442.546 227.251 437.097 227.866 432.769 230.602C428.27 232.377 424.115 234.814 419.913 237.153C416.881 238.838 413.948 240.697 410.971 242.476C407.322 244.445 403.966 246.83 400.878 249.592L400.847 249.624C399.817 250.417 398.786 251.209 397.751 251.998C396.123 253.191 394.494 254.383 392.862 255.578C390.098 257.451 387.341 259.326 384.577 261.196C381.299 263.187 378.178 265.371 375.621 268.273C373.988 269.332 372.562 270.64 371.193 272.021C366.646 276.23 362.284 280.668 356.612 283.446C353.315 285.056 350.026 286.688 346.766 288.369C346.253 288.629 345.639 287.863 345.292 288.652C342.702 289.565 340.113 290.486 337.525 291.405C335.955 291.491 334.582 292.212 333.158 292.766C332.226 292.792 331.362 293.035 330.564 293.508C323.968 294.81 317.688 297.126 311.424 299.494C309.384 300.267 307.457 301.331 305.496 302.301C305.108 302.498 304.484 302.69 304.815 303.388C305.045 303.874 305.418 304.061 306.002 304.054C311.928 303.941 317.863 304.12 323.755 303.324C324.35 303.237 324.904 302.83 325.476 302.568C327.799 303.1 330.064 302.592 332.328 302.155C345.214 300.884 357.49 297.026 369.807 293.355C372.509 292.596 375.194 291.787 377.558 290.213C378.632 289.512 379.955 289.647 381.05 289.062C383.429 288.187 385.874 287.49 387.989 286.012C393.846 284.123 399.267 281.306 404.65 278.38C407.517 277.121 410.203 275.524 412.87 273.889C419.003 270.414 425.703 268.336 432.318 266.065C438.787 263.842 444.854 260.89 450.492 257.025C456.195 253.11 462.804 251.008 468.923 247.932C481.177 241.783 493.457 235.71 504.912 228.065C511.351 223.766 518.173 219.992 525.411 217.089C532.251 214.604 538.635 211.037 545.548 208.748C548.207 207.956 551.058 208.038 553.646 206.94C555.131 205.725 556.668 206.105 558.207 206.797C558.66 207.379 559.405 206.994 559.925 207.351C563.04 208.906 566.128 210.525 569.285 212.007C571.749 213.16 573.91 214.897 576.506 215.785C583.272 219.594 590.03 223.421 596.798 227.222C598.638 228.253 600.542 229.18 602.186 230.544C602.768 231.031 603.481 231.509 604.214 230.684C604.397 230.966 604.666 231.228 604.744 231.543C604.945 232.328 605.498 233.469 603.769 232.808C603.37 232.655 602.943 232.704 602.641 233.087C598.654 233.993 594.581 234.36 590.548 234.972C588.407 235.298 586.271 235.617 584.139 235.943C578.077 236.103 572.327 237.975 566.489 239.282C565.823 239.427 564.928 239.023 564.412 239.803C559.143 240.533 554.218 242.515 549.173 244.051C546.759 244.782 544.361 245.602 541.956 246.376C529.667 249.901 517.428 253.539 505.959 259.38C502.257 261.267 498.297 262.655 494.451 264.271C493.944 264.494 493.464 264.781 492.968 265.034C490.631 265.684 488.619 267.009 486.491 268.088C475.312 273.798 464.256 279.73 453.595 286.356C453.297 286.539 453.022 286.761 452.74 286.963C444.283 291.52 435.822 296.073 427.368 300.632C420.072 304.639 412.805 308.715 405.459 312.627C398.531 316.315 391.395 319.581 384.258 322.845C383.878 323.028 383.478 323.173 383.103 323.373C382.761 323.572 382.12 323.642 382.241 324.136C382.381 324.689 382.938 324.393 383.318 324.318C385.323 323.928 387.399 323.729 389.331 323.098C395.482 321.089 401.823 319.764 408.037 317.99C413.573 316.405 419.229 315.581 424.945 315.052C426.401 314.916 427.838 314.604 429.283 314.369C432.916 314.236 436.295 313.074 439.655 311.828C443.36 310.463 447.075 309.134 450.778 307.792L450.843 307.769L450.912 307.744C464.207 303.416 477.502 299.087 490.792 294.758C496.9 293.076 502.961 291.17 508.778 288.712C517.429 285.052 526.224 281.805 535.131 278.845C537.672 278.002 539.991 276.669 542.352 275.442C553.041 270.398 563.602 265.102 573.732 258.985C577.485 257.177 581.213 255.337 584.787 253.185C586.789 251.995 588.796 250.804 590.807 249.611C595.26 247.582 599.37 244.916 603.73 242.709C606.461 241.322 609.232 240.01 612.003 238.688C612.27 238.56 612.53 238.788 612.681 239.051C614.516 240.918 616.768 242.252 618.933 243.646C624.228 247.076 629.222 250.886 634.019 254.978C635.679 256.923 637.708 258.451 639.733 259.985C641.287 261.702 643.152 263.118 644.524 265.03C644.895 265.541 645.533 265.883 644.908 266.591C639.944 266.632 635.257 268.498 630.34 268.838C627.859 269.003 625.483 269.694 623.093 270.32C612.636 273.059 601.926 274.828 591.753 278.619C591.231 278.814 590.74 279.082 590.232 279.313C589.451 279.355 588.727 279.555 588.073 279.996C586.786 280.413 585.493 280.834 584.202 281.253C582.321 281.51 580.839 282.998 578.869 282.982C573.877 284.829 569.196 287.324 564.596 289.982C560.448 292.022 556.119 293.663 552.271 296.349C550.025 297.921 547.072 298.218 544.641 299.618C543.502 300.282 542.167 300.623 541.094 301.454C537.066 303.171 533.075 304.979 529.003 306.594C523.197 308.9 517.094 310.05 510.949 311.054C507.085 311.686 503.135 312.264 499.465 313.561C496.952 314.459 494.359 314.451 491.901 315.253C488.255 315.757 484.616 316.269 480.969 316.787C480.627 316.837 480.281 317.013 479.939 317.016C479.213 317.02 478.185 316.331 477.883 317.321C477.578 318.313 478.807 318.657 479.455 319.033C483.271 321.223 487.414 321.246 491.6 320.929C491.838 320.99 492.146 320.961 492.522 320.855C499.7 321.219 506.729 319.605 513.842 319.192C517.927 319.342 521.92 318.826 525.829 317.61C526.535 317.652 527.273 317.909 527.887 317.309C530.374 317.521 532.837 317.421 535.254 316.727C535.688 316.618 536.116 316.511 536.55 316.402C541.553 315.838 546.575 315.493 551.535 314.615C553.909 314.261 556.238 313.763 558.429 312.738C565.858 311.019 572.559 307.353 579.642 304.708C586.023 302.329 592.021 299.146 597.957 295.839C598.607 295.473 599.397 295.169 599.495 294.218C599.561 293.586 599.932 293.684 600.393 293.853C601.1 294.112 601.601 293.668 602.064 293.208C607.283 290.7 612.689 288.526 617.394 285.068C619.885 283.245 622.895 282.542 625.529 281.047C626.284 280.665 627.046 280.291 627.804 279.907C630.81 278.672 633.819 277.433 636.824 276.188C636.929 276.173 637.042 276.13 637.166 276.047C643.374 274.245 649.577 272.447 656.164 273.114C657.016 274.01 658.158 274.254 659.28 274.607C661.368 275.262 663.041 276.676 664.837 277.856C666.272 277.938 666.583 277.104 666.254 275.956C665.607 273.688 665.064 271.378 664.048 269.235C664.483 269.451 664.936 269.638 665.381 269.814C666.188 270.137 666.906 270.096 666.618 268.865C666.19 268.156 665.758 267.443 665.327 266.725C665.23 264.905 665.203 263.097 665.603 261.286C665.916 259.839 664.93 258.647 664.532 257.337C662.097 247.132 660.304 236.778 657.346 226.714C656.002 222.122 654.283 217.635 652.306 213.266C651.151 209.946 649.995 206.629 648.839 203.317C646.251 193.769 642.406 184.554 641.044 174.676C640.224 168.749 638.409 163.06 636.14 157.605C633.838 152.056 632.586 146.452 632.547 140.499C632.549 140.169 632.319 139.848 632.19 139.518L632.193 139.515C631.847 132.894 630.188 126.434 629.674 119.828C629.214 117.642 628.757 115.453 628.307 113.272C628.161 112.583 628.067 111.578 627.401 111.53C626.454 111.465 626.794 112.547 626.611 113.148C626.047 114.982 626 116.875 625.979 118.773C625.064 123.845 625.106 128.986 624.754 134.102C624.537 137.258 623.902 140.372 623.989 143.551C624.007 144.244 623.799 144.958 624.196 145.615C622.938 153.621 624.033 161.519 625.314 169.404C625.584 172.185 625.781 174.973 626.51 177.688C626.829 182.226 627.965 186.592 629.161 190.946C629.174 191.102 629.209 191.26 629.291 191.414C630.288 198.05 633.045 204.333 633.666 210.982C634.176 216.49 636.05 221.526 637.397 226.75C637.662 227.38 638.06 227.99 638.184 228.652C639.431 235.509 643.198 241.419 645.403 247.911C645.828 248.435 645.743 249.059 645.727 249.66C644.893 252.44 644.877 252.476 642.485 250.88C638.548 248.265 634.637 245.616 630.724 242.975C629.78 242.199 628.847 241.43 627.91 240.658C626.842 239.904 626.229 238.847 625.864 237.617C625.306 234.87 624.748 232.112 624.184 229.358C624.027 226.394 623.113 223.573 622.378 220.738C621.308 216.608 620.746 212.337 619.108 208.352C619.119 205.18 617.743 202.324 616.96 199.343C615.397 193.405 613.501 187.574 611.07 181.924C609.321 177.64 608.646 172.934 606.037 168.978C605.824 168.639 605.616 168.303 605.4 167.966C603.941 165.232 602.485 162.487 601.027 159.761C598.617 154.96 595.836 150.368 592.973 145.822C591.845 144.036 590.726 142.244 589.601 140.456C587.362 137.197 585.931 133.452 583.448 130.313C579.501 125.307 575.261 120.575 570.798 116.032C567.74 112.921 564.857 109.642 561.352 106.967C560.346 106.206 560.207 104.452 558.904 103.706C557.335 101.485 555.764 99.2589 554.198 97.0364C553.238 95.589 552.285 94.1538 551.329 92.7128C550.284 90.7204 549.131 88.7921 547.797 86.9786C544.733 81.3324 540.905 76.2127 537.055 71.1079C536.503 70.3877 535.959 69.669 535.415 68.9504C533.374 66.023 531.692 62.9748 531.924 59.217C531.956 58.7972 531.595 58.3158 531.319 57.9364C530.112 56.2582 530.858 54.2219 530.279 52.4407C530.135 49.963 529.151 47.6888 528.598 45.3081C527.927 42.4369 528.49 39.7648 529.698 37.1662L530.045 36.6527C530.565 30.5169 532.706 24.6549 532.995 18.4896C533.017 18.0239 533.203 17.5194 532.707 16.8875C529.92 20.5702 525.977 23.3877 525.445 28.4298C523.853 32.3893 521.909 36.2402 521.408 40.5712C517.811 48.9657 517.903 57.4114 520.819 66.0022C523.09 72.6861 524.964 79.5188 527.56 86.1C529.216 90.3001 531.025 94.4372 532.763 98.6099C533.868 102.068 535.205 105.427 536.983 108.601C543.019 119.922 548.222 131.698 555.565 142.323C558.212 146.144 560.18 150.434 562.642 154.393C566.336 160.338 570.183 166.177 573.972 172.072C574.198 172.416 574.371 172.83 574.848 172.92C576.042 173.628 575.808 175.272 576.909 176.035C577.217 176.797 577.708 177.393 578.447 177.768C579.001 178.53 579.553 179.294 580.107 180.059C580.951 181.544 582.04 182.855 583.17 184.133C585.746 188.145 588.937 191.731 591.256 195.915C592.564 198.451 594.359 200.645 596.027 202.932C599.65 207.951 602.092 213.654 605.363 218.894C606.37 221.192 608.002 223.21 608.526 225.736C608.36 226.228 608.627 227.298 607.513 226.557C606.877 226.136 606.254 225.979 605.528 226.23C605.179 225.225 604.135 225.136 603.4 224.676C599.569 222.285 595.702 219.942 591.812 217.641C590.915 217.107 589.93 216.628 588.921 216.38C587.744 216.093 586.647 215.957 586.088 214.625C585.835 214.033 584.99 213.818 584.394 213.996C582.792 214.477 581.941 213.532 581.091 212.486L581.073 212.468C578.793 210.406 576.091 208.933 573.41 207.557C571.079 206.359 569.244 204.272 566.56 203.74C565.371 203.363 565.649 201.458 564.139 201.421C564.23 200.81 563.847 200.459 563.446 200.109C561.507 195.207 559.565 190.307 557.631 185.408C556.981 183.263 556.063 181.236 554.997 179.273C554.027 176.102 552.653 173.107 551.084 170.197C548.596 164.737 546.134 159.271 543.61 153.832C542.16 150.695 540.623 147.604 539.118 144.484C538.656 143.065 537.772 141.874 537.052 140.593C534.57 136.398 531.192 132.841 528.604 128.722C528.362 128.339 527.973 128.165 527.528 128.139C527.19 127.519 527.075 126.743 526.321 126.428C523.779 123.725 521.237 121.031 518.692 118.327C518.125 117.618 517.567 116.913 517 116.2C515.656 114.572 514.315 112.941 512.969 111.31C507.347 105.747 501.269 100.715 495.028 95.8564C491.22 92.8957 488.148 89.1553 484.894 85.6207C478.332 78.4991 471.986 71.1707 465.255 64.2327C460.882 59.7244 456.795 54.9654 452.368 50.5207C450.077 47.9862 447.793 45.4501 445.505 42.9187C440.771 37.4755 436.372 31.772 431.931 26.1013C430.045 22.6277 427.493 19.6149 425.105 16.5085C423.746 14.7341 422.008 13.2523 420.643 11.4822C420.073 10.753 419.529 10.9331 418.904 10.8828C417.77 6.82238 414.21 4.37009 412.217 0.869549C411.9 0.322597 411.361 -0.271268 410.69 0.13357C410.221 0.416689 409.943 0.99626 410.156 1.75051C411.588 6.83787 413.621 11.6547 416.445 16.1317C417.864 19.7954 420.224 22.9156 422.4 26.12C427.067 33.0011 432.103 39.6341 436.357 46.7931C438.962 50.5364 441.014 54.6369 443.932 58.1707C445.893 61.1315 447.851 64.0918 449.811 67.0553C452.259 71.3612 455.572 75.0808 458.159 79.2825C465.845 91.7348 474.293 103.655 482.921 115.457C485.485 119.06 487.983 122.703 490.622 126.246C494.484 131.417 498.48 136.493 502.349 141.668C503.874 143.701 505.588 145.554 507.387 147.339C509.747 150.968 512.692 154.133 515.448 157.448C519.216 162.042 523.535 166.137 527.6 170.452C531.236 174.607 534.869 178.759 538.508 182.912C540.237 183.988 541.438 185.382 542.361 187.298C543.175 188.994 544.859 190.267 546.166 191.723C546.168 191.836 546.173 191.947 546.179 192.058C546.173 192.804 545.879 193.312 544.919 193.291C541.835 192.159 538.757 191.04 535.687 189.906C533.658 188.943 531.734 187.702 529.402 187.529C529.107 187.242 528.866 186.842 528.514 186.676C523.193 184.232 517.89 181.724 512.335 179.811C510.132 178.559 507.809 177.57 505.44 176.711C501.936 175.44 498.704 173.589 495.412 171.878C494.332 171.311 493.598 170.356 492.855 169.427C489.783 164.373 486.661 159.35 482.847 154.811C479.316 150.611 476.085 146.176 472.823 141.76C471.904 140.032 470.539 138.658 469.191 137.273C468.788 136.715 468.383 136.153 467.979 135.591C465.552 131.468 462.637 127.682 459.793 123.856C457.403 120.636 454.834 117.557 452.346 114.414C450.809 111.782 448.397 109.833 446.735 107.303C445.054 104.612 442.332 103.014 440.063 100.94C435.489 96.777 430.883 92.6374 426.286 88.4914C424.696 86.7753 422.901 85.2962 420.995 83.9404C420.592 82.9832 419.511 82.8502 418.86 82.1982C410.932 74.9199 402.396 68.4054 393.531 62.3146C390.874 60.4903 388.486 58.2773 385.629 56.7264C380.576 52.9375 375.518 49.1476 370.466 45.3588C364.103 40.1297 357.673 34.9915 351.085 30.0501C346.743 26.7931 342.487 23.4436 338.188 20.1375C337.855 19.8787 337.489 19.6738 337.138 19.4472C333.506 16.1999 329.85 12.9864 325.726 10.342C324.402 9.50068 324.414 10.1546 324.4 11.1881C324.381 12.4569 324.9 13.5197 325.57 14.5301C330.918 22.6188 337.057 30.1149 342.705 37.975C344.31 40.2107 345.812 42.5221 347.357 44.7954C347.808 45.6357 348.253 46.4749 348.71 47.3136C350.406 51.5354 353.357 54.9988 355.627 58.8761C360.327 66.6983 365.457 74.2215 371.376 81.1928C373.495 84.2814 375.678 87.3002 378.728 89.5794C379.271 89.9872 379.66 90.587 380.11 91.0974C382.717 95.3688 386.313 98.7161 389.999 102.026C395.349 106.834 400.69 111.626 406.815 115.444C407.289 115.742 407.805 115.977 408.297 116.24C409.917 117.379 411.559 118.476 413.373 119.294C419.631 123.142 425.887 126.989 432.136 130.846C436.223 133.373 440.315 135.896 444.229 138.682C444.782 139.081 445.23 139.731 446.049 139.633C450.575 143.171 455.092 146.722 459.637 150.247C460.662 151.045 461.557 152.139 463.072 152.042L463.626 152.271C466.352 156.173 470.602 158.224 474.269 160.97C475.876 162.173 476.691 163.627 477.106 165.461C477.117 167.117 476.319 167.536 474.785 167.098C472.765 166.514 470.708 166.035 468.67 165.519C468.225 165.009 467.636 164.914 467.007 164.995C465.718 164.293 464.246 164.255 462.874 163.847C456.988 161.632 450.848 160.331 444.784 158.773C442.941 158.301 441.123 157.738 439.294 157.219C439.2 157.181 439.108 157.147 439.02 157.118C433.896 155.233 428.494 154.355 423.299 152.728C422.17 152.368 421.153 151.635 419.903 151.674C417.938 150.554 415.544 150.525 413.652 149.222C412.059 148.582 412.039 146.885 411.262 145.7C411.42 145.044 411.359 144.482 410.749 144.025C403.939 138.96 397.372 133.61 391.259 127.705C389.255 125.459 387.254 123.213 385.255 120.967C382.267 116.628 378.335 113.186 374.416 109.747C372.27 107.871 370.307 105.734 367.616 104.521C367.076 104.279 367.228 103.213 366.371 103.127C357.816 95.7814 348.573 89.3815 339.27 83.0604C335.961 81.032 332.761 78.8274 329.255 77.1389C328.283 76.3349 327.299 75.5452 326.068 75.1733C318.139 73.3317 311.028 69.4706 303.695 66.1616C296.345 62.8495 288.714 60.2506 281.246 57.2256C279.885 56.553 278.542 55.8317 277.045 55.4699C276.149 55.0111 275.25 54.5459 274.233 54.3901C267.225 52.2344 260.22 50.0766 253.209 47.9368C244.899 45.4034 236.617 42.7685 228.421 39.8977C226.758 39.3188 225.046 38.8732 223.36 38.3694C215.81 35.9931 208.351 33.3957 201.127 30.1305C196.31 27.9581 191.401 25.9735 186.531 23.9032C184.09 22.0835 181.244 21.0132 178.559 19.6451C177.868 19.2903 177.022 18.833 176.434 19.62C175.791 20.4842 176.51 21.2514 177.093 21.7992C180.171 24.6996 183.266 27.5788 186.412 30.4019C188.18 31.9831 189.608 34.0048 191.967 34.8544C192.664 35.3012 193.362 35.7428 194.065 36.188C194.197 36.8217 194.715 37.0101 195.24 37.1726C198.592 40.6554 202.892 42.8842 206.634 45.8592C209.11 47.8205 211.641 49.7131 214.109 51.6977C215.275 52.6337 216.537 53.3773 217.902 53.96C218.91 54.8206 220.187 55.3474 221.047 56.4147C221.421 56.8797 221.947 57.1659 222.547 57.0106C223.702 56.716 224.465 57.0686 225.063 58.1198C226.582 60.7726 229.308 61.8684 231.777 63.3666C237.389 66.7613 242.897 70.3384 248.45 73.8367C249.423 74.7343 250.484 75.5202 251.719 76.036C256.34 79.4667 261.688 81.6266 266.592 84.575C272.64 88.2078 278.713 91.8178 284.981 95.1095C290.448 97.9751 296.332 99.8708 301.837 102.631C303.04 103.231 304.231 103.845 305.427 104.449C309.03 106.055 312.638 107.629 316.225 109.259C321.292 111.553 326.255 114.082 331.414 116.124C335.523 117.738 339.511 119.742 343.834 120.794C345.108 120.605 345.748 121.711 346.683 122.206C347.481 122.628 348.202 123.234 349.166 123.25C352.693 125.921 356.817 127.34 360.887 128.888C362.889 129.985 364.807 131.255 367.088 131.754C367.571 132.243 368.159 132.506 368.838 132.559C370.171 133.234 371.507 133.913 373.001 134.178C374.655 134.87 376.251 135.733 378.052 136.018C378.339 136.193 378.613 136.498 378.92 136.545C381.509 136.935 382.06 137.325 384.179 139.19C385.134 140.024 386.47 140.436 387.634 141.039C388.175 141.565 389.081 141.666 389.347 142.524C389.231 144.142 388.046 143.754 387.065 143.743C384.953 143.374 382.84 143.011 380.731 142.643C375.763 141.02 370.56 140.453 365.465 139.454C360.343 138.443 355.372 136.903 350.297 135.765C344.448 134.453 338.635 132.989 332.629 132.603C331.71 132.068 330.677 132.148 329.679 132.053C326.079 130.794 322.357 130.052 318.635 129.28C312.7 128.042 307.482 124.987 301.905 122.847C301.247 122.592 300.598 122.347 299.939 122.106C299.743 121.751 299.422 121.682 299.059 121.708C298.131 121.223 297.198 120.757 296.134 120.652C288.437 117.081 280.91 113.129 272.804 110.482C271.737 110.899 271.277 109.609 270.363 109.6C264.406 106.447 257.825 105.166 251.479 103.153C244.842 101.602 238.206 100.075 231.575 98.4924C229.733 98.0537 227.928 97.485 226.099 96.9638C225.601 96.1801 224.558 97.2338 224.08 96.3661C220.214 95.6284 216.364 94.7976 212.477 94.163C205.76 93.0713 198.963 93.1623 192.191 92.9228C190.933 92.8808 189.67 92.761 188.414 92.6809C182.562 92.6249 176.722 92.2606 170.872 92.4852C168.607 92.7208 166.342 92.9538 164.075 93.1862C159.647 93.4607 155.206 93.6776 150.776 94.0287C148.242 94.2354 145.683 93.7639 143.165 94.3337C142.143 94.3444 141.089 93.9613 140.101 94.5201C138.699 94.4935 137.301 94.4733 135.9 94.444C129.958 94.3425 124.048 95.2259 118.103 95.044C112.938 94.8829 107.775 94.8845 102.637 95.4682C96.4201 96.458 90.1627 96.1891 83.9113 96.2348C81.7512 96.2467 79.5778 96.201 77.4535 96.7505C73.7425 96.3379 69.9671 96.8276 66.2918 95.8641C65.5711 95.6874 64.6926 95.8339 64.608 96.6718C64.5128 97.5489 65.4474 97.3834 66.0237 97.4433C70.0238 97.8669 73.8553 99.0952 77.7706 99.9444C78.4516 100.086 79.1627 100.117 79.8521 100.203C83.6278 100.994 87.3824 101.877 91.1707 102.55C94.1326 103.08 97.1393 103.357 100.125 103.741C106.098 105.091 112.053 106.534 118.052 107.752C123.032 108.764 128.059 109.549 133.082 110.374C134.853 110.669 136.665 110.849 138.218 109.578C138.761 109.819 139.306 110.062 139.847 110.302C142.681 111.089 145.477 112.062 148.348 112.62C159.862 114.855 171.299 117.632 183.183 117.198C186.912 117.062 190.666 117.62 194.41 117.864C201.622 118.697 208.816 119.683 216.031 120.502C224.233 121.437 232.34 123.058 240.45 124.612C245.377 125.555 250.406 125.67 255.404 126.015C256.841 126.472 258.347 126.541 259.82 126.502C265.748 126.384 271.685 126.963 277.604 126.227C279.993 126.318 282.387 126.405 284.78 126.492C286.487 126.563 288.195 126.626 289.902 126.691C298.484 128.374 307.072 130.037 315.646 131.782C316.65 131.985 317.999 131.385 318.624 132.782C318.524 134.291 317.606 134.528 316.289 134.485C310.705 134.288 305.125 134.632 299.553 134.967C299.285 134.985 299.022 135.131 298.761 135.216C286.82 136.829 274.882 135.274 262.937 135.284C260.098 135.284 257.251 135.528 254.43 134.941C254.212 134.9 253.932 135.16 253.679 135.275C246.406 135.688 239.129 136.134 231.854 136.504C221.108 137.047 210.454 138.579 199.759 139.635C199.34 139.673 198.933 139.811 198.515 139.91C190.781 140.399 183.053 140.958 175.39 142.182C170.528 142.634 165.648 143.055 160.868 144.114C160.549 144.185 160.26 144.411 159.957 144.562C158.898 143.147 157.492 144.329 156.575 144.514C152.289 145.386 147.903 145.642 143.662 146.72C139.206 147.393 134.742 148.029 130.29 148.741C119.564 150.454 108.845 152.189 98.1192 153.927C90.244 155.21 82.4897 157.073 74.7158 158.854C72.777 159.301 70.7475 159.374 68.904 160.238C68.2781 160.193 67.633 160.078 67.084 160.53C61.3752 161.7 55.6415 162.748 50.0959 164.617C46.7513 165.745 43.6359 167.391 40.3912 168.735C37.4584 169.01 35.1579 171.105 32.3431 171.588C30.2615 171.938 28.6863 173.111 26.9174 174.014C26.5374 174.211 26.4858 174.511 26.3628 174.824C23.6649 174.542 21.3899 175.972 18.9516 176.717C16.9584 177.325 14.9341 178.09 13.1511 179.079C11.2427 180.13 9.29571 181.045 7.34025 181.975C5.7431 182.72 4.47464 184.064 2.65362 184.429C1.14871 184.726 1.04247 186.431 -2.2512e-05 187.303C2.21873 185.563 4.98061 185.787 7.46705 185.172C8.75202 184.848 9.95237 184.466 11.1357 183.935C14.112 182.959 17.3168 182.974 20.1292 181.179C21.4608 180.331 23.4805 180.583 25.181 180.298C32.5033 179.044 39.8075 177.675 47.2269 177.12C55.2883 176.902 63.3014 176.196 71.3179 175.265C87.6075 173.359 103.925 171.686 120.214 169.835C125.893 169.186 131.546 168.298 137.203 167.493C137.628 167.432 138.257 167.643 138.414 166.937C138.595 166.663 138.767 166.392 138.949 166.129C140.199 167.606 141.769 167.081 143.3 166.82C150.858 165.966 158.387 164.919 165.868 163.532C167.226 163.586 168.542 163.356 169.83 162.931C173.34 162.366 176.849 161.807 180.358 161.234C180.83 161.155 181.293 160.983 181.761 160.857C182.96 160.837 184.132 160.628 185.275 160.282L185.278 160.282L185.299 160.276L185.319 160.269C194.995 158.624 204.667 156.976 214.247 154.835C219.33 153.699 224.455 152.727 229.557 151.68C230.704 151.84 231.818 151.738 232.908 151.348C238.845 150.464 244.812 149.763 250.568 147.958C252.464 147.338 254.48 147.124 256.287 146.184C257.226 145.69 258.143 145.268 258.399 144.107C259.271 144.71 260.149 144.734 261.17 144.396C269.681 141.51 278.643 140.636 287.33 138.547C288.982 138.148 290.622 138.274 292.33 138.725C294.524 139.302 296.815 138.481 299.076 138.64C304.135 138.676 309.187 138.757 314.247 138.721C315.306 138.712 316.186 138.865 316.959 139.564C316.905 140.732 316.152 141.173 315.129 141.145C309.66 140.989 304.515 142.737 299.256 143.778C298.684 143.903 298.118 144.024 297.552 144.15C292.175 145.101 287.026 146.884 281.827 148.464C273.188 151.093 264.335 153.077 255.913 156.384C250.402 158.548 244.707 160.148 239.19 162.275C236.648 162.92 234.22 163.876 231.833 164.942C231.492 164.984 231.125 164.936 230.897 165.281C228.615 166.068 226.332 166.861 224.051 167.646C217.115 169.597 210.406 172.174 203.769 174.936C195.968 178.18 188.411 181.973 180.567 185.131C177.588 186.326 174.761 187.888 171.871 189.29C164.379 193.228 156.425 196.241 149.147 200.612C145.529 202.422 141.908 204.232 138.285 206.038C137.518 206.424 136.754 206.8 135.99 207.181C132.844 208.527 129.936 210.319 126.957 211.985C121.496 214.42 116.585 217.712 112.062 221.596C105.011 227.667 98.2171 234.058 90.1507 238.838C89.7696 239.067 89.082 239.276 89.38 239.863C89.579 240.244 90.1662 239.987 90.5414 239.815C103.031 234.067 116.072 230.009 129.445 226.889C133.35 225.972 137.245 224.879 140.981 223.334C145.423 221.969 149.867 220.606 154.311 219.244C155.605 218.872 156.899 218.503 158.195 218.127C162.669 216.779 167.145 215.436 171.619 214.091C172.898 213.711 174.186 213.333 175.47 212.956C181.22 211.486 186.706 209.24 192.28 207.229C200.841 204.144 209.401 201.052 217.964 197.96C220.481 196.864 223.397 196.632 225.426 194.489C235.9 191.906 245.515 187.108 255.328 182.833C266.6 177.912 277.768 172.742 288.561 166.829C295 163.305 301.246 159.427 307.591 155.741C309.049 154.894 310.583 154.191 312.081 153.429C317.425 150.53 322.809 147.698 328.098 144.69C329.477 143.904 330.548 142.575 331.761 141.495C332.49 141.093 333.219 140.686 333.95 140.276C335.234 139.526 336.688 139.294 338.033 139.716C347.676 142.763 357.809 143.584 367.555 146.14C372.11 147.336 376.663 148.555 381.219 149.763C381.919 149.962 382.613 150.164 383.307 150.363C383.919 152.557 382.622 154.569 380.158 154.977C376.768 155.532 373.456 156.345 370.216 157.47C366.179 158.696 362.143 159.926 358.104 161.157C355.432 161.532 352.889 162.429 350.366 163.312C342.909 165.918 334.98 167.072 327.872 170.724L327.355 171.057C322.532 173.186 317.34 174.305 312.625 176.788C304.904 180.842 297.011 184.59 289.192 188.468C288.823 188.655 288.49 188.916 288.142 189.144C283.312 191.284 278.782 194.001 274.15 196.516C271.675 197.859 269.098 199.036 266.786 200.666C263.418 202.768 260.029 204.836 256.69 206.982C248.321 212.37 239.966 217.784 231.604 223.19C224.436 227.338 217.756 232.207 211.268 237.326C208.393 239.59 205.703 242.082 202.928 244.473C201.135 246.062 199.333 247.646 197.554 249.248C197.257 249.522 196.711 249.82 196.926 250.245C197.206 250.798 197.819 250.51 198.242 250.345C200.949 249.353 203.64 248.32 206.336 247.305C213.453 245.45 220.386 243.063 227.158 240.197C231.345 238.924 235.17 236.822 239.174 235.116C243.349 233.34 247.578 231.704 251.783 230.013C251.927 229.976 252.086 229.914 252.258 229.822C260.352 227.604 267.586 223.279 275.389 220.371C278.765 219.115 282.205 218.033 285.609 216.867C286.402 216.808 287.143 216.59 287.822 216.162C292.137 214.485 296.449 212.805 300.759 211.122L301.24 210.86C307.805 208.401 314.409 206.037 320.811 203.179C321.631 202.818 322.337 202.197 323.097 201.694C330.081 198.304 337.065 194.927 343.338 190.254C344.51 189.38 345.924 188.796 347.283 188.235C350.379 186.961 353.259 185.341 356.002 183.439C360.754 180.143 365.738 177.175 370.308 173.609C372.24 172.29 374.159 170.965 376.085 169.645C378.566 168.576 380.975 167.385 382.836 165.354C385.822 162.112 389.701 160.177 393.415 157.993C393.959 157.681 394.462 157.292 394.98 156.942C397.241 156.301 399.093 154.719 401.555 154.421C403.259 154.214 404.874 154.313 406.533 154.46C407.778 155.373 409.276 154.899 410.641 155.196C412.917 155.666 415.238 155.92 417.549 156.268C424.625 158.36 431.64 160.674 439.027 161.484C445.428 163.557 451.876 165.461 458.4 167.083C458.935 167.212 459.516 167.138 460.083 167.16C461.145 167.721 462.039 168.38 461.646 169.811C461.345 170.081 461.047 170.351 460.744 170.626C457.96 170.753 455.481 172.029 452.863 172.769C449.697 173.66 446.593 174.768 443.466 175.782C442.738 176.014 442.016 176.246 441.285 176.48C435.799 177.651 430.547 179.658 425.156 181.137C423.325 181.638 421.528 182.228 419.717 182.777C412.723 184.672 405.715 186.469 398.921 189.073C393.125 191.29 387.141 193.025 381.655 196.004C381.034 196.334 380.43 196.689 379.819 197.035C376.2 198.353 373.076 200.597 369.709 202.375C361.762 206.579 353.523 210.211 345.78 214.792C344.771 215.382 343.795 216.02 342.805 216.631C340.85 217.764 338.89 218.896 336.936 220.024C333.909 221.721 331.407 224.155 328.517 226.036C322.197 230.172 315.91 234.356 309.613 238.518C307.033 240.224 304.361 241.811 302.175 244.05C298.157 246.432 294.376 249.166 290.598 251.892C286.928 254.542 283.175 257.054 279.246 259.308C278.338 259.825 277.531 260.521 276.68 261.135C270.191 266.471 263.704 271.805 257.212 277.141C256.941 277.367 256.67 277.599 256.448 277.868C256.142 278.247 255.665 278.709 255.964 279.168C256.247 279.595 256.903 279.489 257.353 279.315C263.064 277.111 269.043 275.618 274.474 272.687C281.552 270.756 288.611 268.92 295.406 265.926C299.655 264.055 304.253 262.676 308.772 261.31C309.63 261.049 310.431 260.599 311.261 260.231C316.32 258.361 321.378 256.484 326.434 254.603L326.469 254.591ZM651.035 259.808L651.005 259.835C650.973 259.776 650.954 259.718 650.946 259.661L651.035 259.808ZM530.311 78.4106C530.327 78.3588 530.35 78.3112 530.38 78.2678C530.355 78.3149 530.334 78.3657 530.315 78.417L530.31 78.4159L530.311 78.4106ZM541.391 97.4795L541.399 97.2997L541.489 97.4303C541.453 97.4451 541.422 97.4636 541.391 97.4795ZM543.444 87.1828C543.368 87.3848 543.227 87.4969 542.852 87.3396C542.478 87.1855 542.499 86.9835 542.611 86.7805C542.746 86.9448 542.996 87.044 543.443 87.1854L543.444 87.1828ZM539.666 78.7473C539.482 78.7353 539.396 78.6412 539.383 78.5123C539.49 78.583 539.584 78.6623 539.666 78.7473ZM155.047 151.807C155.009 151.775 154.988 151.732 154.979 151.678L155.047 151.807ZM277.295 113.821L277.282 113.818L277.296 113.802L277.295 113.821ZM397.485 272.763L397.482 272.779L397.473 272.766L397.485 272.763ZM152.375 215.705L152.352 215.695L152.374 215.697L152.374 215.708L152.375 215.705ZM152.353 215.731L152.367 215.703L152.379 215.714L152.351 215.73L152.353 215.731ZM290.243 260.911C290.09 260.936 289.931 260.973 289.767 261.025C289.892 260.935 290.007 260.842 290.111 260.748C290.146 260.807 290.189 260.862 290.243 260.911ZM501.938 119.726L501.923 119.718L501.941 119.71L501.938 119.726ZM521.47 148.585L521.444 148.525C521.519 148.532 521.57 148.567 521.47 148.585ZM534.314 158.419C534.273 158.46 534.23 158.482 534.181 158.483L534.314 158.419ZM651.378 234.372L651.403 234.259C651.475 234.367 651.448 234.38 651.378 234.372ZM642.056 199.038L642.148 199.004L642.069 199.085L642.058 199.039L642.056 199.038ZM569.752 254.173L569.76 253.982C569.783 254.045 569.804 254.107 569.821 254.171L569.752 254.173ZM572.945 256.811L573.013 256.83L572.919 256.888L572.945 256.811ZM250.371 120.482C250.301 120.394 250.233 120.309 250.171 120.219C250.229 120.247 250.284 120.272 250.34 120.294L250.371 120.482ZM588.006 157.036L587.985 156.919L588.057 157.011L588.006 157.036ZM343.798 169.866C343.798 169.883 343.795 169.898 343.789 169.914L343.798 169.866ZM343.824 182.532L343.835 182.506L343.845 182.538L343.822 182.531L343.824 182.532ZM450.71 124.609L450.64 124.601L450.664 124.562L450.71 124.609ZM447.568 126.083C447.514 126.174 447.444 126.251 447.368 126.315C447.431 126.232 447.499 126.157 447.568 126.083ZM507.544 270.828C507.592 270.75 507.644 270.669 507.699 270.59L507.679 270.852C507.637 270.83 507.592 270.821 507.544 270.828ZM497.343 269.688C497.404 269.848 497.419 270.022 497.352 270.19L497.343 269.688ZM497.317 273.303C497.491 273.398 497.707 273.416 497.597 273.653C497.549 273.753 497.511 273.85 497.477 273.948C497.408 273.73 497.355 273.514 497.317 273.303ZM489.132 283.108L489.129 283.107L489.129 283.105L489.132 283.108ZM552.728 108.285L552.907 108.117C552.911 108.176 552.919 108.232 552.932 108.293C552.861 108.29 552.796 108.287 552.73 108.285L552.728 108.285ZM323.998 93.1794C324.004 93.2629 323.922 93.3565 323.69 93.4724C323.662 93.4888 323.63 93.4989 323.597 93.509C323.731 93.4201 323.865 93.3095 323.999 93.1767L323.998 93.1794ZM235.197 176.539C235.224 176.542 235.255 176.539 235.289 176.533C235.245 176.562 235.198 176.591 235.146 176.619L235.148 176.606L235.194 176.544L235.197 176.539ZM421.204 106.54C421.127 106.495 421.061 106.443 421 106.389C421.082 106.431 421.158 106.479 421.222 106.533L421.204 106.537L421.204 106.54ZM421.172 106.547L421.204 106.54L421.212 106.569L421.172 106.547ZM371.227 272.058L371.204 272.01C371.212 272.025 371.219 272.043 371.227 272.058ZM343.038 219.319L342.842 219.368C342.898 219.291 342.961 219.265 343.038 219.319ZM222.967 100.778L222.965 100.775L222.966 100.77L222.967 100.776L222.967 100.778ZM399.265 255.438L399.262 255.477L399.229 255.481L399.267 255.439L399.265 255.438ZM7.74141 182.651L7.81014 182.651C7.78476 182.654 7.76308 182.653 7.74141 182.651ZM367.244 131.648C367.201 131.683 367.156 131.718 367.112 131.745L367.244 131.648ZM400.857 249.613C400.877 249.749 400.893 249.887 400.91 250.025C400.794 249.946 400.749 249.828 400.857 249.613ZM400.466 255.37L400.433 255.38L400.447 255.325L400.466 255.37ZM79.4619 99.2783L79.2256 99.3467C78.8857 99.4521 78.577 99.4015 78.6857 99.0906L78.711 99.0187C78.9294 99.1365 79.1795 99.2193 79.4619 99.2783ZM609.617 180.293L609.626 180.276L609.648 180.302L609.617 180.291L609.617 180.293ZM581.495 253.994L581.659 253.985L581.645 254.024C581.631 254.07 581.579 254.052 581.495 253.994ZM584.626 253.249L584.806 253.183C584.748 253.213 584.688 253.237 584.626 253.249ZM169.598 94.5044L169.628 94.4663C169.659 94.489 169.687 94.5138 169.709 94.5403C169.673 94.5302 169.636 94.5202 169.598 94.5044ZM454.2 226.163L454.2 226.111L454.227 226.139L454.2 226.163ZM555.691 101.152L555.626 100.765C555.677 100.894 555.704 101.023 555.691 101.152ZM652.076 213.237C652.16 213.226 652.243 213.226 652.318 213.246C652.231 213.254 652.152 213.252 652.076 213.237ZM378.192 83.956C378.112 84.1215 378.052 84.269 378.014 84.407C377.981 84.1972 378.05 83.9746 378.192 83.956ZM372.757 287.962L372.765 287.963L372.761 287.968L372.757 287.962ZM615.654 234.617L615.961 234.428L615.832 234.658C615.771 234.648 615.71 234.636 615.654 234.617ZM301.996 152.119C302.052 151.976 302.427 152.07 302.675 152.26L301.996 152.119ZM400.516 153.741C400.444 153.815 400.349 153.837 400.206 153.754C400.299 153.756 400.402 153.751 400.516 153.741ZM643.732 261.805L643.637 261.799C643.665 261.687 643.687 261.644 643.732 261.805ZM336.57 297.586C336.565 297.486 336.594 297.382 336.676 297.277C336.638 297.369 336.601 297.471 336.57 297.586ZM354.662 122.65C354.695 122.72 354.732 122.793 354.773 122.864L354.595 122.766C354.619 122.729 354.643 122.693 354.663 122.647L354.662 122.65ZM545.432 92.8016C545.412 92.6985 545.391 92.5928 545.375 92.4823C545.455 92.5642 545.529 92.6477 545.6 92.7307C545.536 92.7508 545.481 92.7757 545.432 92.8016ZM293.119 125.172C293.158 125.084 293.183 125.099 293.198 125.174L293.119 125.172ZM444.627 181.459C444.664 181.453 444.702 181.444 444.733 181.436L444.745 181.697L444.627 181.462L444.627 181.459ZM180.618 94.0323L180.614 93.9984L180.637 94.0222L180.618 94.0323ZM387.549 228.775L387.643 228.744L387.615 228.912L387.549 228.775ZM389.394 227.254L389.42 227.246L389.423 227.274L389.396 227.258L389.394 227.254ZM406.229 220.49C406.32 220.472 406.412 220.466 406.508 220.466L406.229 220.49ZM163.618 152.133C163.454 152.326 163.264 152.422 163.027 152.285C163.228 152.245 163.427 152.197 163.618 152.133ZM630.251 269.095C630.249 268.979 630.271 268.882 630.348 268.826C630.326 268.937 630.292 269.023 630.251 269.095ZM142.677 107.851C143.003 107.665 143.124 107.552 143.002 108.031C142.894 107.963 142.785 107.902 142.677 107.851ZM143.765 108.573C143.887 108.523 143.973 108.576 144.044 108.719C143.953 108.679 143.861 108.631 143.765 108.573ZM409.1 187.152C408.847 187.267 408.64 187.393 408.461 187.545C408.395 187.284 408.239 187.005 407.956 186.702C408.356 186.889 408.735 187.041 409.098 187.149L409.1 187.152ZM628.692 143.716C628.787 143.531 628.89 143.37 629.07 143.294C628.982 143.433 628.852 143.577 628.692 143.716ZM525.904 146.627L525.853 146.304C526.152 146.35 526.324 146.447 526.431 146.573C526.208 146.578 526.034 146.593 525.904 146.625L525.904 146.627ZM470.54 217.648C470.597 217.517 470.726 217.408 471.072 217.392C471 217.564 470.97 217.753 470.962 217.947C470.848 217.844 470.707 217.748 470.54 217.651L470.54 217.648ZM481.882 214.624L481.898 214.613L481.908 214.673L481.882 214.626L481.882 214.624ZM621.81 233.005L621.789 233.014L621.796 232.994L621.81 233.005ZM583.49 173.485L583.535 173.425L583.566 173.448L583.49 173.485ZM663.478 257.121C663.34 257.236 663.194 257.306 663.048 257.167C662.75 256.885 662.636 256.338 662.437 255.919C662.722 256.311 663.03 256.691 663.374 257.051L663.478 257.121ZM662.158 255.514C661.896 255.28 661.492 255.241 660.774 255.645C660.507 255.798 660.727 255.297 660.767 255.138C660.895 254.498 661.046 253.797 660.5 253.347C660.021 252.952 659.428 252.331 658.695 253.042C658.699 252.538 658.893 252.048 658.784 251.532C658.645 250.836 658.502 250.148 658.305 249.468L658.136 248.852C657.879 247.883 657.366 247.726 656.645 248.42C656.479 248.59 656.196 248.798 656.404 249.131C656.024 248.874 656.416 248.66 656.499 248.52C657.097 247.515 656.901 246.638 656.213 245.786C655.556 244.962 654.859 245.45 654.109 245.644C652.325 246.097 650.982 244.771 649.413 244.323C649.07 244.225 649.041 243.642 649.447 243.481C650.89 242.916 651.376 241.015 653.217 240.95C654.177 240.919 654.205 239.935 654.586 239.277C656.198 241.866 657.206 244.75 658.518 247.449C659.797 250.077 660.517 253.046 662.157 255.519L662.158 255.514ZM572.726 295.677L572.458 295.714C572.538 295.658 572.615 295.6 572.69 295.54C572.698 295.586 572.71 295.632 572.726 295.677ZM226.981 56.4819L226.926 56.567C226.896 56.539 226.866 56.5084 226.839 56.4782C226.885 56.4819 226.935 56.4808 226.982 56.4792L226.981 56.4819ZM170.538 197.394L170.563 197.339L170.574 197.393L170.538 197.394ZM181.756 148.913L181.772 148.913L181.758 148.916L181.756 148.91L181.756 148.913ZM369.159 46.1896C369.249 46.29 369.268 46.3872 369.144 46.4751C369.151 46.3804 369.157 46.2853 369.159 46.1896ZM377.513 71.1742C377.685 71.0409 377.907 70.9588 378.141 70.9888C377.929 71.0841 377.72 71.1413 377.513 71.1742ZM424.67 313.26C424.615 313.34 424.566 313.424 424.52 313.513L424.513 313.245L424.561 313.252L424.67 313.26ZM422.724 306.735L422.581 306.64C422.654 306.633 422.726 306.63 422.792 306.63C422.765 306.666 422.745 306.7 422.724 306.735ZM323.548 199.145C323.745 199.245 323.852 199.357 323.66 199.572C323.445 199.809 323.194 199.801 322.92 199.658C323.226 199.447 323.434 199.288 323.548 199.145ZM201.759 102.221C202.189 101.908 202.602 101.905 202.872 102.443C202.458 102.3 202.088 102.226 201.759 102.221ZM221.77 39.5889C221.843 39.499 221.928 39.4308 222.063 39.4301L221.77 39.5889ZM590.304 281.436C590.356 281.754 590.353 281.976 590.037 281.589C590.138 281.535 590.226 281.483 590.304 281.436ZM451.602 300.491C451.588 300.447 451.584 300.399 451.585 300.355L451.602 300.491ZM452.513 139.737C452.444 139.844 452.368 139.884 452.278 139.798C452.36 139.773 452.435 139.752 452.513 139.737ZM482.268 97.6227C482.2 97.4662 482.241 97.3589 482.553 97.3386C482.634 97.3327 482.716 97.319 482.803 97.2978C482.632 97.3957 482.457 97.5036 482.268 97.6227ZM336.569 103.571L336.301 103.911C336.236 103.947 336.051 103.91 335.801 103.827C336.034 103.761 336.29 103.675 336.572 103.572L336.569 103.571ZM306.847 89.7549C306.761 89.7761 306.676 89.7867 306.602 89.7746C306.083 89.7126 306.07 89.314 306.192 88.9179C306.277 89.1711 306.469 89.4046 306.847 89.7549ZM492.752 265.551C492.754 265.337 492.81 265.151 492.986 265.026C492.92 265.205 492.842 265.379 492.752 265.551ZM426.987 90.0743C427.231 90.1365 427.316 90.3156 427.288 90.5107C427.191 90.3649 427.087 90.2206 426.987 90.0743ZM233.034 189.293L233.092 189.39C233.042 189.404 232.995 189.42 232.948 189.438L233.034 189.293Z" fill="#EBECEC"/>
</svg>
