<svg width="303" height="533" viewBox="0 0 303 533" fill="none" xmlns="http://www.w3.org/2000/svg">
<path d="M157.373 302.72C161.791 310.891 172.622 314.176 179.694 317.15C193.149 322.801 206.711 327.425 220.421 332.065C238.144 338.058 255.114 342.187 273.57 343.244C276.751 343.424 280.006 343.683 283.298 343.903C285.72 344.065 287.465 346.851 286.876 349.722C281.186 377.359 272.766 404.651 261.384 429.383C258.602 435.42 252.852 438.509 247.332 436.858C221.473 429.146 197.83 414.191 177.097 393.293C167.493 383.613 159.339 371.192 148.35 363.719C141.515 359.071 129.915 353.891 122.206 358.619C107.67 367.525 119.3 398.208 126.139 408.649C138.972 428.235 158.486 441.849 177.373 450.93C194.089 458.967 212.181 466.007 230.489 469.478C233.538 470.056 234.758 474.608 232.627 477.325C221.971 490.935 209.891 502.652 196.301 511.762C188.807 516.792 179.943 518.097 171.785 514.967C163.491 511.777 155.524 507.326 147.877 501.962C134.308 492.448 119.943 480.871 109.507 466.494C101.357 455.261 96.0708 441.867 88.9871 429.753C84.7506 422.501 78.5004 415.534 70.6401 418.855C57.7313 424.323 68.4056 448.159 72.2996 457.004C81.0531 476.869 92.1184 494.77 106.325 509.376C111.553 514.75 117.07 519.595 122.812 523.983C126.138 526.522 124.547 532.818 120.628 532.588C89.1657 530.699 57.8881 516.54 36.2071 488.498C16.2198 462.648 8.08839 426.07 12.4181 391.619C13.8951 379.901 4.77576 370.717 -4.4176 374.611C-11.8809 377.774 -19.5835 379.91 -27.3613 381.048L-51.952 300.353C-43.7618 300.143 -31.4398 298.304 -33.5546 286.6C-35.1644 277.709 -43.8438 274.814 -50.2153 273.593C-53.6995 272.925 -57.1651 272.4 -60.6167 271.92L-94.0172 162.316C-92.6826 163.452 -91.4086 164.652 -90.3324 166.054C-86.3358 171.262 -80.9665 177.325 -76.9914 168.452C-72.7094 158.884 -79.886 148.776 -86.7362 144.828C-89.3084 143.342 -95.3181 142.74 -99.5752 144.078L-110.222 109.142C-109.378 107.955 -108.524 106.786 -107.656 105.618C-103.397 99.8685 -96.6404 97.9727 -90.7009 100.737C-69.2112 110.756 -51.4891 130.389 -38.4738 154.446C-29.1693 171.638 -24.2048 191.274 -17.9939 210.256C-13.2925 224.63 -9.59205 240.848 -2.59209 253.843C-0.31611 258.068 5.97233 268.931 11.3639 265.741C15.9223 263.04 14.9091 252.862 14.5866 248.033C12.7749 220.799 0.85939 195.161 -10.3513 172.139C-19.4768 153.406 -30.4214 137.016 -42.1294 120.655C-51.5782 107.449 -61.6383 92.8872 -66.1518 75.9676C-67.8551 69.5872 -65.4595 62.648 -60.6838 59.322C-48.3273 50.7241 -23.3189 33.8689 -4.84509 24.989C0.0167078 22.6552 5.55807 23.484 9.70477 27.3596C22.5669 39.3979 27.9937 62.0314 32.4371 81.0526C37.0902 100.965 40.6641 122.141 47.8272 140.963C52.0332 152.008 64.1814 172.084 74.8305 157.092C84.4493 143.545 72.0633 116.403 67.2096 103.476C62.5779 91.1566 58.3088 78.6276 53.8089 66.2332C48.0506 50.3582 42.9217 33.1222 46.8377 17.0203C48.2808 11.0914 52.385 6.61622 57.4038 5.64909C77.4972 1.77985 97.8441 -0.0814257 117.9 0.00271344C120.696 0.0109094 122.475 3.57946 121.303 6.66843C109.947 36.6123 112.109 76.7545 118.276 106.4C120.276 116.003 124.735 137.997 136.036 136.621C141.637 135.94 146.691 128.905 148.518 122.878C151.267 113.815 148.688 103.525 146.089 94.8771C142.043 81.3968 137.942 68.2425 134.393 54.5297C131.852 44.7118 129.396 34.5846 130.555 24.2153C131.11 19.245 132.479 14.4711 133.839 9.68658C135.38 4.26269 139.739 0.846566 144.439 1.26563C155.759 2.28178 166.899 3.90588 177.754 6.15566C180.351 6.68995 181.704 10.2782 180.347 13.022C174.124 25.6284 169.641 39.646 167.137 53.732C164.087 70.8723 163.62 92.1288 176.739 103.487C189.136 114.222 197.152 96.4697 198.059 82.985C199.616 59.7079 192.741 36.743 202.649 16.0952C203.522 14.2777 205.252 13.3227 206.929 13.859C234.213 22.515 262.015 33.2999 290.244 25.3685C290.369 25.3343 290.498 25.2911 290.625 25.2412C292.806 24.3904 294.96 23.5519 297.122 22.7399C298.586 22.1909 300.212 21.6063 301.657 22.5562C303.027 23.4645 301.488 37.2877 301.427 38.8732C300.279 69.4099 298.723 99.9276 297.355 130.451C297.015 138.034 292.355 144.356 286.178 145.373C273.443 147.48 258.285 142.87 247.268 140.98C235.195 138.912 216.943 134.956 206.306 144.553C195.815 154.023 203.001 167.83 212.37 172.867C224.926 179.624 239.813 180.179 253.342 180.459C266.381 180.728 278.821 178.589 290.685 174.173C293.164 173.247 295.654 175.456 295.609 178.615C295.42 191.76 295.588 204.923 295.797 218.076C295.893 224.069 291.972 229.004 287.059 229.163C262.387 229.947 238.943 225.297 215.405 213.826C202.575 207.569 177.984 193.112 165.891 208.372C144.95 234.806 215.109 243.127 225.656 244.951C241.648 247.716 257.724 250.067 273.884 250.663C280.345 250.903 289.006 248.041 293.342 254.766C294.045 255.856 294.606 257.07 295.053 258.374C298.099 267.316 295.664 280.693 295.085 289.378C294.443 299.009 293.453 308.797 292.142 318.648C291.829 321.025 290.054 322.724 288.081 322.554C261.668 320.286 235.19 317.355 210.658 304.204C198.301 297.575 185.083 291.079 171.641 288.734C164.651 287.514 150.412 289.85 157.383 302.753L157.373 302.72ZM260.482 284.581C265.017 286.609 265.541 277.927 263.977 274.863C261.871 270.75 258.458 276.418 258.514 280.758C258.539 282.463 259.096 283.965 260.482 284.581ZM226.022 52.6081C231.517 52.7802 236.192 45.0287 232.468 39.517C230.297 36.3061 220.336 35.7366 217.572 38.0402C216.849 38.6459 216.426 39.3866 216.24 40.2159C215.194 44.9563 222.08 52.4862 226.024 52.6148L226.022 52.6081ZM-38.5035 76.9394C-41.1748 77.7634 -43.2441 82.5905 -44.4503 84.8972C-45.0302 85.9949 -44.8782 87.4466 -43.8154 88.0349C-38.6131 90.9138 -35.4618 90.8137 -33.7867 89.3563C-29.9553 86.0131 -33.8366 75.5067 -38.5015 76.946L-38.5035 76.9394ZM6.21282 311.628C5.43746 307.786 3.97698 304.089 2.53029 300.558C-2.45295 288.382 -14.9493 291.27 -11.4676 305.675C-10.0845 311.41 -5.76755 320.508 -0.517306 321.942C3.91661 323.151 7.96091 320.284 6.21282 311.628ZM67.5826 209.724C67.2709 202.902 64.8865 195.625 59.8447 192.584C59.6836 192.258 59.4484 191.973 59.0461 191.808C56.1382 190.639 50.7927 187.817 47.9773 190.784C45.6731 193.218 46.9296 198.152 48.6839 200.483C50.7638 203.253 54.4982 203.687 55.5919 207.641C56.2256 209.944 55.7845 212.876 56.0451 215.272C56.4387 218.895 57.7309 222.669 61.0584 223.37C66.8875 224.595 67.7926 214.529 67.5751 209.72L67.5826 209.724ZM110.583 174.256C110.284 167.76 104.068 171.895 102.658 174.467C100.624 178.194 110.87 180.449 110.583 174.256ZM99.5792 25.1773C100.688 17.6836 91.5198 24.1547 90.3005 27.777C90.0059 28.6554 90.2184 29.5755 90.7889 30.1906C96.4022 36.2634 98.4861 32.5587 99.5792 25.1773ZM62.3909 309.997C60.0793 319.706 94.7924 335.021 98.1309 324.607C103.526 307.761 65.6229 296.395 62.3909 309.997ZM127.96 270.188C127.081 268.884 125.73 268.223 124.433 267.635C117.301 264.425 88.9777 251.73 87.6385 269.617C87.0885 276.956 95.4515 280.8 100.227 281.689C102.828 282.176 120.765 282.059 127.05 277.359C129.345 275.643 130.083 273.322 127.968 270.192L127.96 270.188ZM148.083 188.033C145.712 188.322 142.678 193.735 141.521 195.877C135.602 206.848 143.016 211.55 149.111 202.335C149.627 201.553 150.225 200.312 150.748 198.886C152.47 194.178 153.393 187.393 148.083 188.033ZM225.701 395.417C224.593 404.371 245.104 413.651 250.191 410.576C253.787 408.408 255.146 399.852 253.651 395.553C252.07 391.014 248.191 389.923 244.856 388.63C244.66 388.554 244.453 388.504 244.217 388.52C238.578 388.932 226.965 385.189 225.699 395.411L225.701 395.417ZM204.559 373.198C205.971 379.048 210.493 377.748 211.658 372.608C213.393 364.981 203.449 365.541 204.411 372.429C204.444 372.678 204.497 372.933 204.559 373.198Z" fill="#EBECEC" fill-opacity="0.46"/>
</svg>
