<svg width="290" height="312" viewBox="0 0 290 312" fill="none" xmlns="http://www.w3.org/2000/svg">
<path d="M224.989 299.921C227.355 297.331 229.6 294.624 231.697 291.791C238.688 282.335 244.63 270.912 244.37 258.833C244.191 250.59 237.555 242.997 229.156 248.871C220.462 254.949 220.666 268.636 216.165 277.338C209.26 290.681 198.359 301.815 185.876 310.187C183.958 310.751 182.154 311.283 180.233 311.845C165.094 311.611 149.939 308.977 135.514 304.039C130.914 302.465 126.461 300.666 122.143 298.667C119.92 297.641 120.156 294.406 122.492 293.68C134.903 289.817 146.881 284.794 157.697 277.374C168.62 269.88 183.293 257.72 187.979 244.817C189.47 240.713 189.596 235.271 185.551 232.52C181.889 230.028 177.353 231.818 173.937 233.843C169.121 236.693 164.992 240.645 161.077 244.671C153.6 252.357 145.013 258.91 135.534 263.922C124.455 269.78 112.229 274.271 99.7242 276.209C92.6858 277.298 85.6018 274.556 80.9246 269.181C69.7161 256.299 57.9726 237.129 53.2145 229.083C52.4459 227.785 53.6595 226.232 55.1111 226.644C65.6405 229.622 76.3801 229.311 87.2894 227.607C102.801 225.181 119.975 223.092 134.653 217.163C139.27 215.299 144.916 212.57 147.115 207.761C148.879 203.899 147.929 198.926 144.202 196.623C139.427 193.675 132.395 195.362 127.376 196.57C120.787 198.158 114.591 200.512 107.806 201.164C84.5525 203.407 62.3105 198.259 40.0439 192.506C39.1005 192.262 38.3582 191.528 38.1057 190.586C36.3094 183.872 34.6725 177.111 33.0972 170.339C32.6072 168.231 34.6891 166.459 36.7008 167.249C45.6184 170.746 55.0038 173.332 64.3814 171.365C70.6388 170.053 80.6978 166.532 80.5386 158.652C80.3464 149.008 70.7546 147.089 63.2103 148.791C57.7962 150.015 52.6422 152.055 47.1325 152.926C40.7721 153.935 34.7857 153.198 28.7586 151.628C28.6596 151.212 28.5654 150.796 28.4664 150.38C24.4596 133.616 18.0174 115.969 0.743365 108.95C0.0483008 108.666 -0.108865 108.007 0.0653105 107.446C-0.0280992 106.827 0.261644 106.101 1.02363 105.882C18.9572 100.719 31.9802 87.1946 43.8962 73.5389C45.4223 71.7866 46.9864 70.0647 48.5805 68.3578C51.9222 64.7876 57.1419 63.6702 61.6463 65.5685C64.0332 66.5746 66.2586 67.867 67.9945 68.9971C72.7498 72.0983 76.8011 76.1989 80.4018 80.5498C85.7759 87.0433 90.128 94.2555 94.3078 101.547C96.9535 106.161 100.571 113.218 106.21 114.654C117.589 117.551 116.668 97.7304 116.25 91.4843C115.345 77.996 108.04 66.3205 99.8046 55.922C95.759 50.8133 90.9878 45.3133 85.5663 40.7115C84.2344 39.5804 84.3594 37.4665 85.8042 36.485C93.7271 31.0883 102.015 26.1849 110.582 21.8487C119.015 17.5789 129.312 20.3687 134.319 28.3861C143.046 42.3651 145.66 63.3912 147.459 76.516C149.361 90.4057 150.546 104.183 154.441 117.734C155.986 123.104 157.901 131.059 162.652 134.692C166.863 137.914 171.033 134.58 173.175 130.545C177.739 121.942 171.205 110.36 168.384 102.175C162.407 84.8375 164.346 67.536 164.482 49.6878C164.566 38.3779 163.468 26.5587 157.854 16.5025C156.497 14.0674 154.91 11.8514 153.142 9.82788C151.819 8.31061 152.499 5.92278 154.453 5.43935C167.889 2.10869 181.616 0.212294 195.384 0.00350398L195.493 0.00222174C202.465 -0.0994615 209.05 3.33324 212.861 9.17096C227.432 31.4898 231.607 62.3055 229.234 87.7353C228.485 95.7693 225.589 103.653 223.9 111.529C222.174 119.589 219.632 129.876 222.512 137.983C224.259 142.902 229.115 145.766 234.189 143.575C240.505 140.847 243.145 132.209 244.814 126.233C250.027 107.578 250.706 87.2556 249.426 68.0502C248.349 51.913 245.681 35.8428 240.783 20.4077C239.786 17.2633 238.57 14.3608 237.11 11.618C235.956 9.45219 238.044 6.97921 240.351 7.81286C253.066 12.4197 265.178 18.919 276.192 26.9179C283.584 32.286 288.783 40.1554 290.655 49.1002C295.431 71.9155 298.156 95.7152 290.154 117.836C287.871 124.143 284.106 129.909 281.395 136.043C279.439 140.476 276.111 147.345 278.069 152.334C279.739 156.585 284.516 158.128 288.343 155.881C293.239 153.004 296.084 146.545 298.423 141.644C308.9 119.691 312.952 95.0424 310.327 71.0544C310.015 68.2029 313.796 66.8872 315.262 69.3524C330.654 95.2627 336.774 125.955 327.801 156.956C321.894 177.359 310.017 198.108 290.682 208.205C289.508 208.819 288.918 210.139 289.308 211.404C290.92 216.637 293.148 230.378 293.166 232C293.255 239.423 291.754 246.749 288.919 253.601C282.822 268.315 270.99 280.049 258.068 288.97C248.644 295.478 238.464 300.559 227.847 304.269C225.218 305.186 223.109 301.989 224.988 299.931L224.989 299.921ZM195.439 285.942C189.354 289.129 193.449 295.2 197.159 290.774C198.141 289.599 198.838 286.405 197.09 285.62C196.694 285.442 196.1 285.594 195.442 285.94L195.439 285.942ZM67.4096 109.88C67.6801 104.812 64.8545 100.5 59.2274 102.237C57.5104 102.768 53.5514 103.297 52.6074 105.083C48.9184 112.08 63.246 111.421 66.3611 110.964C66.8764 110.889 67.3829 110.417 67.4122 109.878L67.4096 109.88ZM130.688 75.8317C134.401 74.2504 132.431 64.0695 131.534 61.6752C130.467 58.8263 122.996 67.5673 124.064 71.2122C124.708 73.4048 128.074 76.9439 130.686 75.8291L130.688 75.8317ZM44.1072 134.218C45.4058 133.88 45.9852 132.916 43.9432 131.214C43.0937 130.51 41.1443 130.532 40.3323 131.33C37.9664 133.647 41.9912 134.772 44.1093 134.22L44.1072 134.218ZM201.309 39.4689C203.852 37.9263 205.681 34.2399 205.179 30.1045C204.597 25.2911 197.073 11.6733 191.316 18.8427C188.244 22.6671 191.106 31.8577 193.003 35.655C195.362 40.381 198.706 41.0467 201.306 39.4662L201.309 39.4689ZM205.961 128.227C205.673 126.651 205.452 125.076 205.554 123.482C205.802 119.617 210.805 110.394 205.509 108.093C194.973 103.518 194.389 127.447 194.866 132.755C195.796 143.111 207.816 144.524 206.743 132.957C206.595 131.37 206.248 129.801 205.961 128.227ZM272.665 103.573C275.303 101.9 277.672 97.5508 277.266 93.8917C276.905 90.6968 273.724 87.3623 270.434 88.7557C266.918 90.2502 266.165 96.6026 266.851 99.7065C267.898 104.46 270.383 105.021 272.665 103.573ZM270.472 127.504C272.684 126.299 272.372 120.177 272.065 118.003C271.929 117.037 270.804 116.673 270.058 117.214C267.736 118.897 264.13 126.301 268.997 127.621C269.581 127.781 270.068 127.725 270.472 127.504ZM106.175 185.446C108.087 182.682 105.087 173.318 101.728 177.136C100.294 178.769 96.8762 182.01 97.0213 184.448C97.2831 188.855 103.971 188.616 106.175 185.446ZM296.153 179.863C300.359 176.65 305.222 168.985 303.527 163.974C302.497 160.928 295.839 165.011 294.972 166.575C294.238 167.907 294.009 169.459 293.914 170.976C293.721 173.964 293.657 177.951 295.195 180.52C295.509 180.329 295.826 180.109 296.15 179.86L296.153 179.863ZM98.4998 245.761C98.791 248.141 105.912 249.537 103.153 244.698C102.551 243.647 100.733 243.292 99.7156 243.941C98.7547 244.557 98.4261 245.187 98.4972 245.763L98.4998 245.761ZM119.505 238.384C117.829 239.674 115.359 244.625 116.498 246.821C118.592 250.858 123.048 247.751 122.834 244.01C122.732 242.209 122.101 240.499 121.426 238.843C121.114 238.087 120.126 237.901 119.503 238.381L119.505 238.384ZM197.945 214.169C201.534 213.027 204.904 210.689 204.904 206.472C204.901 202.478 200.619 201.555 197.397 201.845C192.803 202.26 187.949 204.57 185.304 208.432C185.081 208.761 185.035 209.097 185.109 209.402C183.951 211.416 183.723 213.597 186.605 214.783C189.998 216.179 194.605 215.233 197.952 214.167L197.945 214.169ZM267.641 233.297C268.087 232.826 268.484 232.069 268.807 230.96C269.686 227.946 270.237 224.832 270.447 221.698C270.599 219.43 270.563 217.087 269.712 214.98C267.554 209.628 262.124 209.324 260.727 215.161C259.941 218.455 259.29 222.531 260.092 226.077C260.773 229.084 265.033 236.059 267.644 233.295L267.641 233.297Z" fill="#F6F6F6"/>
</svg>
