<svg width="286" height="323" viewBox="0 0 286 323" fill="none" xmlns="http://www.w3.org/2000/svg">
<path d="M82.6544 258.767C78.8391 260.751 74.1635 263.667 68.8546 267.022C66.2209 268.743 63.4804 270.682 60.6903 272.859C57.8892 275.009 54.9592 277.211 52.0775 279.763C46.3361 284.943 40.4208 290.638 34.9686 297.64C29.5094 304.613 24.312 312.356 20.0585 321.763C19.7788 322.373 20.5648 322.777 20.9297 322.378C24.0401 318.96 27.3293 315.922 30.7542 313.158C32.4625 311.765 34.2224 310.49 35.9768 309.18C37.7227 307.847 39.4939 306.567 41.2875 305.333C44.8616 302.839 48.5589 300.621 52.1945 298.292C55.8138 295.959 59.4271 293.63 63.0203 291.314C68.1082 288.106 73.691 282.147 78.6217 276.261C83.4574 270.139 87.4614 263.715 89.6877 259.202C89.8683 259.156 90.0466 259.097 90.2147 259.009C95.7938 255.889 101.409 252.829 106.926 249.601C103.407 253.146 99.587 257.108 95.8494 261.84C92.1162 266.582 88.1795 271.589 84.5609 277.54C77.1967 289.196 70.4064 303.405 65.756 320.734C65.5621 321.463 66.4593 321.772 66.7761 321.261C77.6591 304.088 92.0157 291.74 105.052 278.737C109.687 273.882 114.735 266.458 118.51 258.5C120.438 254.576 122.137 250.652 123.507 247.055C124.824 243.373 125.799 239.997 126.397 237.296C133.817 232.5 140.88 227.196 148.011 221.989C144.809 226.067 141.336 231.087 137.886 237.062C134.279 242.813 130.798 249.691 127.45 257.34C120.741 272.603 114.965 291.711 112.444 315.131C112.356 315.967 113.356 316.164 113.608 315.549C114.683 312.917 115.842 310.397 117.048 307.934C118.227 305.419 119.466 302.986 120.76 300.624C123.333 295.88 126.176 291.517 129.03 287.163C131.857 282.767 134.803 278.56 137.762 274.45C140.75 270.386 143.543 266.09 146.354 261.994C150.59 255.93 154.266 246.12 156.896 236.706C159.462 227.164 160.735 217.675 160.861 211.81C168.463 205.401 176.013 198.927 183.181 192.029C180.603 196.601 177.886 202.56 174.959 209.403C173.531 212.867 172.135 216.646 170.812 220.75C169.434 224.785 168.073 229.075 166.861 233.737C164.507 243.149 162.245 253.404 160.956 265.271C159.574 277.002 158.873 289.974 159.466 304.477C159.496 305.408 160.59 305.479 160.763 304.768C166.392 280.136 177.557 260.79 186.38 240.919C188.003 237.116 189.397 232.362 190.523 227.232C191.085 224.664 191.578 222.004 192 219.309C192.386 216.576 192.669 213.776 192.895 211.028C193.342 205.525 193.497 200.152 193.405 195.388C193.274 190.579 192.826 186.3 192.283 183.13C196.024 179.315 199.841 175.572 203.363 171.55C206.912 167.556 210.65 163.726 213.994 159.554C212.282 164.616 210.002 170.868 208.205 178.815C207.331 182.816 206.332 187.01 205.509 191.646C204.662 196.256 204.016 201.34 203.4 206.669C202.1 217.255 201.614 229.576 201.833 243.106C201.963 249.894 202.476 257.226 203.141 264.751C203.823 272.295 204.845 280.266 206.28 288.664C206.456 289.687 207.614 289.587 207.681 288.775C210.141 261.3 218.662 238.325 224.603 215.471C225.705 211.067 226.477 205.72 226.766 199.897C226.999 194.015 226.847 187.76 226.388 181.714C225.984 175.711 225.032 169.703 224.017 164.509C222.987 159.3 221.81 154.828 220.671 151.559C227.604 142.802 234.437 133.923 240.709 124.708C239.558 129.854 238.52 136.849 237.65 145.377C237.238 149.656 236.955 154.378 236.861 159.545C236.738 164.692 236.632 170.144 236.861 176.125C236.965 179.106 237.129 182.201 237.36 185.411C237.545 188.579 237.767 191.833 238.082 195.218C238.684 201.965 239.658 209.243 240.856 216.858C243.152 231.98 246.999 249.128 252.483 267.692C252.806 268.774 254.033 268.513 253.992 267.627C252.465 237.296 258.326 211.539 260.745 185.887C261.321 181.034 261.053 174.919 260.388 168.541C259.691 162.136 258.602 155.432 256.962 148.914C253.775 135.906 249.202 124.021 245.693 117.378C252.095 107.851 258.262 98.2169 264.49 88.6642C263.722 93.8829 263.136 101.086 263.412 110.079C263.674 119.084 264.788 129.865 267.081 142.511C271.829 167.82 279.967 200.995 297.583 241.46C298.065 242.583 299.347 242.141 299.184 241.194C296.142 224.769 295.46 209.683 295.001 194.859C294.806 180.157 294.836 166.114 293.897 152.888C292.635 131.976 276.897 96.0446 268.713 82.2146C275.125 72.5253 281.627 62.9271 288.579 53.7085C287.647 58.9154 286.946 66.3603 287.484 75.6859C288.01 85.019 289.804 96.2172 293.524 109.153C300.934 135.061 316.022 167.85 340.875 209.852C341.544 210.993 342.82 210.359 342.502 209.369C331.615 175.56 327.93 147.688 322.718 121.78C320.702 111.566 314.958 97.168 308.982 83.2506C302.971 69.377 296.857 55.7439 292.791 48.2143C299.992 38.9653 307.775 30.2054 316.124 22.0626C314.616 27.1868 313.008 34.6915 312.96 44.3563C312.879 54.0412 314.43 65.688 318.572 79.0712C326.78 105.938 345.648 139.028 378.529 179.472C379.398 180.547 380.537 180.02 380.042 179.1C371.514 163.471 365.491 149.044 360.662 135.491C355.838 121.934 352.243 109.207 348.849 96.519C346.079 86.6264 339.831 71.7798 334.313 56.6769C332.245 51.1694 330.3 45.632 328.505 40.4021L309.23 9.6152C300.427 6.32651 287.797 2.9869 274.21 1.36753C256.782 -0.860371 237.922 -0.318871 225.402 2.64767C209.627 6.24037 194.121 10.6053 178.255 13.5299C162.388 16.463 146.164 17.8875 128.639 16.0973C127.617 15.9864 127.647 17.1674 128.963 17.5517C178.758 32.01 219.27 31.1436 249.646 28.1001C264.85 26.5221 277.627 24.2704 287.829 22.2722C298.05 20.2339 305.834 18.3486 311.057 16.8335C302.424 25.2524 294.422 34.2661 287.053 43.7289C278.683 41.5473 263.578 39.8575 247.665 39.965C231.786 40.0268 215.317 41.6991 204.752 44.5442C191.276 48.1736 178.072 51.848 164.521 53.5377C150.962 55.2547 137.003 55.0465 122.043 51.3681C121.17 51.1472 121.316 52.0801 122.465 52.5549C164.934 70.3048 200.937 70.6383 227.872 66.462C241.374 64.3646 252.695 61.1746 261.831 58.0358C270.968 54.8819 277.919 51.7412 282.746 49.3439C275.66 58.7444 269.079 68.4618 262.625 78.2136C246.674 75.9657 206.848 77.8445 188.696 81.8959C176.95 84.6847 165.664 86.7343 153.821 86.83C147.937 86.9507 141.993 86.7213 135.657 85.8028C129.369 84.9178 122.993 83.561 116.286 81.4433C115.493 81.1892 115.552 82.0921 116.581 82.6147C153.21 101.096 184.582 105.515 208.659 102.296C220.726 100.766 230.964 97.6736 239.249 94.3671C247.54 91.0429 253.902 87.5115 258.375 84.6946C252.127 94.2789 245.974 103.887 239.634 113.325C232.192 112.594 219.507 112.651 206.819 112.877C200.505 113.029 194.046 113.061 188.282 113.338C182.485 113.589 177.406 114.081 173.214 114.705C152.191 118.381 130.989 120.531 106.609 111.846C105.895 111.59 105.878 112.494 106.787 113.024C122.638 122.265 137.29 128 151.095 131.525C157.939 133.24 164.392 134.247 170.631 134.849C173.737 135.14 176.789 135.327 179.73 135.386C182.626 135.403 185.442 135.32 188.179 135.147C193.63 134.784 198.846 134.141 203.53 133.134C208.185 132.103 212.482 130.843 216.394 129.477C224.266 126.778 230.271 123.375 234.701 120.576C228.504 129.68 221.809 138.372 214.996 146.979C211.538 146.491 206.932 146.124 201.786 145.849C196.625 145.562 191.012 145.438 185.179 145.208C179.399 145.027 173.644 144.947 168.432 145.066C163.159 145.133 158.321 145.305 154.557 145.895C134.782 148.776 115.242 150.914 93.0358 142.222C92.3943 141.974 92.3013 142.869 93.1049 143.39C99.7185 147.673 106.231 151.285 112.613 154.298C119.012 157.332 125.085 159.543 131.096 161.36C143.161 165.045 154.13 166.213 164.226 166.215C169.24 166.181 173.856 165.671 178.267 165.022C182.652 164.344 186.804 163.496 190.441 162.338C197.771 160.071 204.018 157.479 208.434 154.84C205.15 158.939 201.475 162.699 197.99 166.625C194.53 170.577 190.779 174.253 187.102 178C183.937 177.446 179.828 177.03 175.166 176.617C170.461 176.164 165.281 175.786 160.121 175.529C157.558 175.431 154.98 175.332 152.439 175.235C149.87 175.119 147.363 175.045 144.972 175.027C140.186 174.988 135.877 175.18 132.424 175.712C113.99 178.252 95.5092 180.038 75.5985 172.059C75.0127 171.815 74.8357 172.665 75.549 173.176C86.4265 180.852 97.2208 186.304 107.498 189.82C117.676 193.199 127.604 195.019 136.445 195.196C140.901 195.327 145.208 195.209 149.245 194.813C153.225 194.347 156.991 193.674 160.512 192.871C167.63 191.344 173.417 188.923 178.148 186.751C171.107 193.531 163.684 199.891 156.216 206.188C150.334 204.993 141.147 204.146 131.878 203.543C122.503 202.848 113.318 202.75 106.837 203.554C102.503 204.127 98.3287 204.899 93.9594 205.227C89.6177 205.598 85.2885 205.856 80.9549 205.857C76.595 205.816 72.1288 205.342 67.7099 204.574C65.4923 204.177 63.2729 203.683 61.0465 203.07C58.7959 202.406 56.5259 201.595 54.264 200.668C53.7339 200.45 53.4992 201.275 54.1249 201.748C71.6609 215.077 89.3055 220.641 104.97 221.908C112.789 222.531 119.985 221.91 126.579 220.926C133.021 219.719 138.75 217.982 143.589 216.197C136.579 221.312 129.638 226.525 122.346 231.239C119.649 230.736 116.27 230.321 112.539 229.97C108.756 229.534 104.637 229.181 100.531 228.962C92.3764 228.645 83.9938 228.299 78.2301 229.366C62.1424 231.888 45.897 234.416 29.2689 227.854C28.7877 227.67 28.4988 228.462 29.0478 228.888C42.2365 239.186 56.0816 244.22 68.9862 245.946C75.3737 246.687 81.6802 246.916 87.3879 246.286C93.0986 245.665 98.4841 244.691 103.2 243.334C97.7794 246.504 92.262 249.512 86.781 252.578C86.6137 252.664 86.4622 252.77 86.3236 252.887C81.3019 252.008 73.9898 251.471 66.6659 251.322C62.9594 251.164 59.2589 251.137 55.8307 251.3C52.4047 251.475 49.244 251.833 46.5335 252.285C42.7483 252.984 38.9453 253.685 35.1337 254.386C31.3222 254.998 27.4417 255.335 23.6069 255.571C21.6853 255.677 19.7651 255.733 17.8469 255.72C15.9201 255.684 13.9698 255.491 12.0419 255.266C8.17652 254.793 4.33355 253.999 0.532548 252.754C0.0890035 252.608 -0.248846 253.366 0.24144 253.734C7.73247 259.321 15.8282 263.303 23.8244 265.468C31.8095 267.606 39.8697 268.472 47.2885 268.001C51.0099 267.803 54.6611 267.493 58.0668 266.862C61.4619 266.209 64.6918 265.418 67.7036 264.559C73.7744 262.934 78.7643 260.614 82.6454 258.761L82.6544 258.767Z" fill="#EBECEC" fill-opacity="0.46"/>
</svg>
