<svg width="300" height="312" viewBox="0 0 300 312" fill="none" xmlns="http://www.w3.org/2000/svg">
<path d="M74.7428 299.921C72.3764 297.33 70.1316 294.624 68.0339 291.791C61.0435 282.335 55.1012 270.912 55.3614 258.832C55.5402 250.59 62.1768 242.997 70.5753 248.871C79.2696 254.948 79.065 268.636 83.5665 277.338C90.4708 290.68 101.372 301.814 113.855 310.186C115.774 310.751 117.578 311.283 119.498 311.845C134.637 311.61 149.792 308.977 164.217 304.038C168.817 302.464 173.271 300.666 177.589 298.667C179.811 297.641 179.575 294.406 177.239 293.68C164.829 289.817 152.85 284.794 142.034 277.374C131.111 269.88 116.439 257.719 111.753 244.817C110.262 240.713 110.135 235.27 114.18 232.52C117.842 230.028 122.379 231.818 125.794 233.842C130.61 236.693 134.74 240.645 138.654 244.671C146.131 252.357 154.718 258.909 164.197 263.922C175.276 269.78 187.502 274.27 200.007 276.208C207.046 277.298 214.13 274.556 218.807 269.181C230.015 256.298 241.759 237.129 246.517 229.083C247.285 227.785 246.072 226.232 244.62 226.644C234.091 229.622 223.351 229.311 212.442 227.607C196.93 225.181 179.757 223.092 165.078 217.163C160.461 215.299 154.816 212.569 152.616 207.761C150.852 203.899 151.803 198.925 155.529 196.623C160.304 193.675 167.337 195.362 172.355 196.569C178.945 198.158 185.141 200.511 191.925 201.164C215.179 203.407 237.421 198.258 259.687 192.505C260.631 192.262 261.373 191.528 261.626 190.586C263.422 183.872 265.059 177.11 266.634 170.338C267.124 168.231 265.042 166.459 263.031 167.249C254.113 170.746 244.727 173.332 235.35 171.364C229.092 170.052 219.033 166.532 219.193 158.652C219.385 149.008 228.977 147.089 236.521 148.791C241.935 150.014 247.089 152.055 252.599 152.926C258.959 153.935 264.946 153.198 270.973 151.628C271.072 151.212 271.166 150.796 271.265 150.38C275.272 133.615 281.714 115.969 298.988 108.95C299.683 108.666 299.84 108.007 299.666 107.446C299.759 106.827 299.47 106.101 298.708 105.881C280.774 100.718 267.751 87.1943 255.835 73.5387C254.309 71.7864 252.745 70.0644 251.151 68.3576C247.809 64.7873 242.589 63.67 238.085 65.5683C235.698 66.5743 233.473 67.8667 231.737 68.9969C226.982 72.0981 222.93 76.1986 219.329 80.5496C213.955 87.0431 209.603 94.2552 205.423 101.547C202.778 106.161 199.16 113.218 193.521 114.653C182.142 117.551 183.064 97.7302 183.482 91.4841C184.386 77.9957 191.691 66.3203 199.927 55.9217C203.972 50.813 208.743 45.3131 214.165 40.7113C215.497 39.5801 215.372 37.4663 213.927 36.4848C206.004 31.088 197.716 26.1846 189.149 21.8484C180.716 17.5787 170.42 20.3685 165.412 28.3859C156.685 42.3649 154.071 63.391 152.272 76.5157C150.37 90.4054 149.185 104.183 145.29 117.733C143.745 123.104 141.83 131.059 137.079 134.692C132.868 137.913 128.699 134.58 126.557 130.545C121.992 121.941 128.526 110.359 131.347 102.174C137.324 84.8372 135.385 67.5357 135.249 49.6876C135.165 38.3776 136.264 26.5584 141.877 16.5023C143.234 14.0672 144.821 11.8512 146.59 9.82764C147.912 8.31036 147.233 5.92253 145.279 5.43911C131.842 2.10845 118.115 0.212049 104.347 0.00325984L104.239 0.0019776C97.2666 -0.0997056 90.6818 3.33299 86.8705 9.17071C72.2998 31.4896 68.1245 62.3053 70.4975 87.735C71.2462 95.7691 74.1426 103.653 75.8311 111.528C77.5573 119.589 80.0995 129.876 77.2197 137.982C75.4726 142.902 70.6165 145.766 65.5418 143.575C59.2262 140.846 56.5864 132.209 54.9171 126.233C49.7038 107.577 49.0252 87.2553 50.3055 68.05C51.3822 51.9127 54.05 35.8426 58.9482 20.4074C59.9449 17.2631 61.1615 14.3606 62.6213 11.6177C63.7756 9.45195 61.687 6.97896 59.3798 7.81262C46.6656 12.4195 34.5529 18.9188 23.5395 26.9176C16.1476 32.2857 10.9487 40.1552 9.07617 49.1C4.30064 71.9153 1.57485 95.715 9.5775 117.836C11.8603 124.143 15.6253 129.909 18.336 136.043C20.2926 140.476 23.6204 147.345 21.6625 152.333C19.9919 156.585 15.2152 158.128 11.3879 155.881C6.492 153.004 3.64746 146.545 1.30829 141.644C-9.16921 119.691 -13.2209 95.0422 -10.5961 71.0542C-10.2839 68.2027 -14.0647 66.887 -15.5303 69.3521C-30.9228 95.2624 -37.0431 125.954 -28.0699 156.956C-22.1631 177.359 -10.2859 198.108 9.04913 208.205C10.2228 208.819 10.8134 210.139 10.4236 211.404C8.81167 216.637 6.58282 230.377 6.56479 232C6.47639 239.423 7.97728 246.748 10.8124 253.601C16.9095 268.315 28.7412 280.049 41.6631 288.97C51.0872 295.478 61.2671 300.559 71.8843 304.268C74.5128 305.186 76.6219 301.989 74.7437 299.931L74.7428 299.921ZM104.292 285.942C110.377 289.129 106.282 295.2 102.572 290.774C101.59 289.599 100.893 286.405 102.642 285.619C103.038 285.442 103.631 285.594 104.289 285.94L104.292 285.942ZM232.322 109.88C232.051 104.812 234.877 100.499 240.504 102.237C242.221 102.768 246.18 103.297 247.124 105.083C250.813 112.08 236.485 111.421 233.37 110.963C232.855 110.889 232.348 110.416 232.319 109.878L232.322 109.88ZM169.043 75.8315C165.33 74.2502 167.3 64.0693 168.197 61.675C169.264 58.826 176.735 67.5671 175.667 71.212C175.024 73.4045 171.657 76.9437 169.045 75.8289L169.043 75.8315ZM255.624 134.217C254.325 133.879 253.746 132.916 255.788 131.214C256.638 130.51 258.587 130.532 259.399 131.33C261.765 133.647 257.74 134.772 255.622 134.22L255.624 134.217ZM98.4227 39.4686C95.8798 37.926 94.0505 34.2396 94.5522 30.1042C95.1341 25.2908 102.658 11.673 108.415 18.8425C111.487 22.6669 108.625 31.8574 106.728 35.6547C104.37 40.3808 101.025 41.0464 98.4249 39.466L98.4227 39.4686ZM93.7699 128.227C94.0585 126.65 94.2796 125.075 94.1772 123.482C93.9291 119.617 88.926 110.394 94.2226 108.093C104.758 103.518 105.342 127.447 104.865 132.755C103.936 143.111 91.9155 144.524 92.9885 132.956C93.1358 131.369 93.4834 129.801 93.7699 128.227ZM27.0666 103.573C24.4284 101.899 22.0593 97.5505 22.4655 93.8914C22.8258 90.6965 26.0073 87.362 29.2975 88.7555C32.8129 90.2499 33.5665 96.6023 32.8803 99.7062C31.8328 104.459 29.3485 105.02 27.0666 103.573ZM29.2595 127.504C27.0475 126.298 27.3593 120.177 27.6661 118.003C27.8024 117.036 28.9275 116.673 29.673 117.214C31.9952 118.897 35.6012 126.301 30.7346 127.621C30.1505 127.781 29.6636 127.725 29.2595 127.504ZM193.556 185.446C191.645 182.682 194.644 173.318 198.003 177.136C199.437 178.769 202.855 182.01 202.71 184.448C202.448 188.855 195.76 188.616 193.556 185.446ZM3.57871 179.863C-0.627393 176.649 -5.49039 168.985 -3.79597 163.974C-2.76535 160.928 3.89276 165.011 4.75909 166.574C5.49361 167.907 5.72258 169.459 5.81746 170.976C6.00986 173.964 6.07407 177.951 4.53651 180.52C4.22241 180.329 3.90546 180.109 3.58087 179.86L3.57871 179.863ZM201.231 245.76C200.94 248.14 193.819 249.536 196.578 244.698C197.18 243.647 198.998 243.292 200.016 243.941C200.977 244.557 201.305 245.187 201.234 245.763L201.231 245.76ZM180.226 238.384C181.902 239.674 184.372 244.625 183.233 246.82C181.14 250.857 176.683 247.751 176.897 244.009C176.999 242.209 177.63 240.499 178.305 238.843C178.617 238.086 179.605 237.901 180.228 238.381L180.226 238.384ZM101.786 214.168C98.1969 213.027 94.8275 210.688 94.8277 206.472C94.8305 202.478 99.1124 201.555 102.334 201.845C106.928 202.26 111.782 204.57 114.427 208.432C114.651 208.76 114.696 209.097 114.622 209.402C115.78 211.416 116.009 213.597 113.127 214.782C109.734 216.179 105.126 215.233 101.779 214.167L101.786 214.168ZM32.0901 233.297C31.6442 232.826 31.2475 232.069 30.9245 230.959C30.0449 227.946 29.4941 224.831 29.2848 221.698C29.1323 219.43 29.1683 217.087 30.0188 214.98C32.1777 209.628 37.6071 209.324 39.0038 215.16C39.7902 218.454 40.4414 222.531 39.6394 226.077C38.958 229.084 34.6985 236.059 32.0875 233.294L32.0901 233.297Z" fill="#F6F6F6"/>
</svg>
