<svg width="296" height="323" viewBox="0 0 296 323" fill="none" xmlns="http://www.w3.org/2000/svg">
<path d="M213.178 258.767C216.993 260.751 221.669 263.667 226.978 267.022C229.611 268.743 232.352 270.682 235.142 272.859C237.943 275.009 240.873 277.211 243.755 279.763C249.496 284.943 255.412 290.638 260.864 297.64C266.323 304.613 271.52 312.356 275.774 321.763C276.054 322.373 275.268 322.777 274.903 322.378C271.792 318.96 268.503 315.922 265.078 313.158C263.37 311.765 261.61 310.49 259.856 309.18C258.11 307.847 256.338 306.567 254.545 305.333C250.971 302.839 247.273 300.621 243.638 298.292C240.019 295.959 236.405 293.63 232.812 291.314C227.724 288.106 222.141 282.147 217.211 276.261C212.375 270.139 208.371 263.715 206.145 259.202C205.964 259.156 205.786 259.097 205.618 259.009C200.039 255.889 194.423 252.829 188.906 249.601C192.426 253.146 196.245 257.108 199.983 261.84C203.716 266.582 207.653 271.589 211.271 277.54C218.636 289.196 225.426 303.405 230.076 320.734C230.27 321.463 229.373 321.772 229.056 321.261C218.173 304.088 203.817 291.74 190.78 278.737C186.146 273.882 181.097 266.458 177.322 258.5C175.394 254.576 173.695 250.652 172.326 247.055C171.009 243.373 170.033 239.997 169.435 237.296C162.015 232.5 154.952 227.196 147.821 221.989C151.023 226.067 154.496 231.087 157.947 237.062C161.554 242.813 165.034 249.691 168.383 257.34C175.091 272.603 180.868 291.711 183.388 315.131C183.476 315.967 182.476 316.164 182.225 315.549C181.149 312.917 179.99 310.397 178.784 307.934C177.605 305.419 176.367 302.986 175.072 300.624C172.499 295.88 169.657 291.517 166.803 287.163C163.975 282.767 161.029 278.56 158.07 274.45C155.082 270.386 152.29 266.09 149.478 261.994C145.243 255.93 141.566 246.12 138.937 236.706C136.37 227.164 135.097 217.675 134.972 211.81C127.369 205.401 119.819 198.927 112.651 192.029C115.229 196.601 117.947 202.56 120.873 209.403C122.301 212.867 123.697 216.646 125.021 220.75C126.399 224.785 127.76 229.075 128.971 233.737C131.325 243.149 133.587 253.404 134.876 265.271C136.259 277.002 136.959 289.974 136.366 304.477C136.337 305.408 135.242 305.479 135.07 304.768C129.44 280.136 118.275 260.79 109.452 240.919C107.829 237.116 106.435 232.362 105.31 227.232C104.747 224.664 104.254 222.004 103.832 219.309C103.446 216.576 103.164 213.776 102.937 211.028C102.49 205.525 102.335 200.152 102.427 195.388C102.559 190.579 103.006 186.3 103.55 183.13C99.8087 179.315 95.9915 175.572 92.4689 171.55C88.9202 167.556 85.1826 163.726 81.8381 159.554C83.5505 164.616 85.8306 170.868 87.6274 178.815C88.5013 182.816 89.5004 187.01 90.3232 191.646C91.1708 196.256 91.8168 201.34 92.4319 206.669C93.7328 217.255 94.2181 229.576 93.9998 243.106C93.8693 249.894 93.3561 257.226 92.6916 264.751C92.0092 272.295 90.9873 280.266 89.5523 288.664C89.3758 289.687 88.218 289.587 88.1511 288.775C85.6918 261.3 77.1702 238.325 71.2293 215.471C70.127 211.067 69.3552 205.72 69.0659 199.897C68.8333 194.015 68.9851 187.76 69.4444 181.714C69.8485 175.711 70.8008 169.703 71.8154 164.509C72.8453 159.3 74.0226 154.828 75.1614 151.559C68.2282 142.802 61.3958 133.923 55.1228 124.708C56.2743 129.854 57.3127 136.849 58.1821 145.377C58.5947 149.656 58.8776 154.378 58.9713 159.545C59.0945 164.692 59.2003 170.144 58.9716 176.125C58.8671 179.106 58.7029 182.201 58.4724 185.411C58.2874 188.579 58.0654 191.833 57.7501 195.218C57.1483 201.965 56.1745 209.243 54.9762 216.858C52.68 231.98 48.8334 249.128 43.349 267.692C43.0266 268.774 41.799 268.513 41.8403 267.627C43.367 237.296 37.5059 211.539 35.0871 185.887C34.5115 181.034 34.7797 174.919 35.444 168.541C36.1418 162.136 37.2307 155.432 38.8707 148.914C42.0575 135.906 46.6308 124.021 50.1391 117.378C43.7376 107.851 37.5707 98.2169 31.3419 88.6642C32.11 93.8829 32.6968 101.086 32.4202 110.079C32.1585 119.084 31.0442 129.865 28.751 142.511C24.0036 167.82 15.8648 200.995 -1.75026 241.46C-2.23307 242.583 -3.51445 242.141 -3.35156 241.194C-0.309921 224.769 0.372007 209.683 0.831084 194.859C1.0265 180.157 0.996134 166.114 1.93499 152.888C3.19753 131.976 18.9351 96.0446 27.1191 82.2146C20.7076 72.5253 14.2056 62.9271 7.25368 53.7085C8.18562 58.9154 8.88646 66.3603 8.3484 75.6859C7.8224 85.019 6.02818 96.2172 2.3081 109.153C-5.10151 135.061 -20.1898 167.85 -45.0425 209.852C-45.712 210.993 -46.9878 210.359 -46.6698 209.369C-35.7826 175.56 -32.0978 147.688 -26.8858 121.78C-24.87 111.566 -19.126 97.168 -13.1495 83.2506C-7.13881 69.377 -1.02465 55.7439 3.04158 48.2143C-4.15944 38.9653 -11.9431 30.2054 -20.2918 22.0626C-18.7832 27.1868 -17.1759 34.6915 -17.1276 44.3563C-17.0472 54.0412 -18.5972 65.688 -22.7397 79.0712C-30.948 105.938 -49.8161 139.028 -82.697 179.472C-83.5653 180.547 -84.7047 180.02 -84.2095 179.1C-75.6812 163.471 -69.6591 149.044 -64.8295 135.491C-60.006 121.934 -56.4111 109.207 -53.0167 96.519C-50.247 86.6264 -43.9986 71.7798 -38.4807 56.6769C-36.4122 51.1694 -34.4673 45.632 -32.6731 40.4021L-13.398 9.6152C-4.5947 6.32651 8.03577 2.9869 21.6223 1.36753C39.05 -0.860371 57.9107 -0.318871 70.4302 2.64767C86.2049 6.24037 101.711 10.6053 117.577 13.5299C133.444 16.463 149.668 17.8875 167.194 16.0973C168.215 15.9864 168.185 17.1674 166.869 17.5517C117.075 32.01 76.5619 31.1436 46.1867 28.1001C30.9826 26.5221 18.2055 24.2704 8.00373 22.2722C-2.21765 20.2339 -10.0019 18.3486 -15.2251 16.8335C-6.59121 25.2524 1.41058 34.2661 8.7793 43.7289C17.1493 41.5473 32.2544 39.8575 48.1669 39.965C64.0465 40.0268 80.5152 41.6991 91.0805 44.5442C104.556 48.1736 117.761 51.848 131.311 53.5377C144.87 55.2547 158.83 55.0465 173.789 51.3681C174.662 51.1472 174.516 52.0801 173.367 52.5549C130.898 70.3048 94.8956 70.6383 67.9608 66.462C54.4587 64.3646 43.1375 61.1746 34.0017 58.0358C24.8642 54.8819 17.9135 51.7412 13.0862 49.3439C20.1728 58.7444 26.7537 68.4618 33.207 78.2136C49.1588 75.9657 88.9847 77.8445 107.137 81.8959C118.882 84.6847 130.169 86.7343 142.011 86.83C147.895 86.9507 153.839 86.7213 160.176 85.8028C166.463 84.9178 172.839 83.561 179.547 81.4433C180.34 81.1892 180.28 82.0921 179.252 82.6147C142.622 101.096 111.25 105.515 87.173 102.296C75.1063 100.766 64.8687 97.6736 56.5836 94.3671C48.2927 91.0429 41.9301 87.5115 37.4577 84.6946C43.7058 94.2789 49.8582 103.887 56.198 113.325C63.6403 112.594 76.3254 112.651 89.0135 112.877C95.3271 113.029 101.786 113.061 107.55 113.338C113.347 113.589 118.426 114.081 122.618 114.705C143.641 118.381 164.844 120.531 189.224 111.846C189.937 111.59 189.955 112.494 189.045 113.024C173.194 122.265 158.542 128 144.737 131.525C137.894 133.24 131.44 134.247 125.201 134.849C122.095 135.14 119.043 135.327 116.102 135.386C113.206 135.403 110.39 135.32 107.653 135.147C102.203 134.784 96.9863 134.141 92.3025 133.134C87.6475 132.103 83.3502 130.843 79.4386 129.477C71.5664 126.778 65.5615 123.375 61.1309 120.576C67.3283 129.68 74.0233 138.372 80.836 146.979C84.2945 146.491 88.9004 146.124 94.0461 145.849C99.2078 145.562 104.821 145.438 110.653 145.208C116.433 145.027 122.189 144.947 127.401 145.066C132.673 145.133 137.511 145.305 141.275 145.895C161.051 148.776 180.59 150.914 202.797 142.222C203.438 141.974 203.531 142.869 202.727 143.39C196.114 147.673 189.602 151.285 183.219 154.298C176.821 157.332 170.748 159.543 164.737 161.36C152.672 165.045 141.702 166.213 131.606 166.215C126.592 166.181 121.976 165.671 117.565 165.022C113.181 164.344 109.028 163.496 105.391 162.338C98.0612 160.071 91.814 157.479 87.3979 154.84C90.6824 158.939 94.3576 162.699 97.8425 166.625C101.303 170.577 105.053 174.253 108.73 178C111.896 177.446 116.004 177.03 120.667 176.617C125.371 176.164 130.551 175.786 135.711 175.529C138.274 175.431 140.852 175.332 143.393 175.235C145.962 175.119 148.469 175.045 150.86 175.027C155.646 174.988 159.955 175.18 163.408 175.712C181.842 178.252 200.323 180.038 220.234 172.059C220.82 171.815 220.997 172.665 220.283 173.176C209.406 180.852 198.612 186.304 188.334 189.82C178.156 193.199 168.228 195.019 159.387 195.196C154.932 195.327 150.624 195.209 146.588 194.813C142.607 194.347 138.842 193.674 135.321 192.871C128.203 191.344 122.415 188.923 117.685 186.751C124.725 193.531 132.148 199.891 139.617 206.188C145.498 204.993 154.685 204.146 163.955 203.543C173.33 202.848 182.515 202.75 188.996 203.554C193.329 204.127 197.504 204.899 201.873 205.227C206.215 205.598 210.544 205.856 214.877 205.857C219.237 205.816 223.704 205.342 228.122 204.574C230.34 204.177 232.559 203.683 234.786 203.07C237.036 202.406 239.306 201.595 241.568 200.668C242.098 200.45 242.333 201.275 241.707 201.748C224.171 215.077 206.527 220.641 190.862 221.908C183.043 222.531 175.847 221.91 169.253 220.926C162.811 219.719 157.082 217.982 152.243 216.197C159.254 221.312 166.194 226.525 173.487 231.239C176.183 230.736 179.563 230.321 183.293 229.97C187.076 229.534 191.196 229.181 195.302 228.962C203.456 228.645 211.839 228.299 217.602 229.366C233.69 231.888 249.935 234.416 266.563 227.854C267.045 227.67 267.334 228.462 266.785 228.888C253.596 239.186 239.751 244.22 226.846 245.946C220.459 246.687 214.152 246.916 208.444 246.286C202.734 245.665 197.348 244.691 192.632 243.334C198.053 246.504 203.57 249.512 209.051 252.578C209.219 252.664 209.37 252.77 209.509 252.887C214.53 252.008 221.843 251.471 229.166 251.322C232.873 251.164 236.573 251.137 240.002 251.3C243.428 251.475 246.588 251.833 249.299 252.285C253.084 252.984 256.887 253.685 260.699 254.386C264.51 254.998 268.391 255.335 272.225 255.571C274.147 255.677 276.067 255.733 277.985 255.72C279.912 255.684 281.863 255.491 283.79 255.266C287.656 254.793 291.499 253.999 295.3 252.754C295.743 252.608 296.081 253.366 295.591 253.734C288.1 259.321 280.004 263.303 272.008 265.468C264.023 267.606 255.963 268.472 248.544 268.001C244.822 267.803 241.171 267.493 237.766 266.862C234.37 266.209 231.141 265.418 228.129 264.559C222.058 262.934 217.068 260.614 213.187 258.761L213.178 258.767Z" fill="#EBECEC" fill-opacity="0.46"/>
</svg>
