<svg width="491" height="455" viewBox="0 0 491 455" fill="none" xmlns="http://www.w3.org/2000/svg">
<path d="M258.568 277.814C263.293 278.745 268.047 279.42 272.83 280.007C279.079 280.775 285.304 281.711 291.558 282.407C298.146 283.144 304.726 283.995 311.351 284.325C315.395 285.101 319.481 285.014 323.569 285.026C330.824 285.036 338.073 284.941 345.318 284.48C350.832 284.309 356.33 283.949 361.808 283.279C365.981 283.003 370.152 282.677 374.277 281.966C381.87 280.896 389.568 280.711 397.092 279.12C399.345 279.117 401.581 279.028 403.685 278.107C407.06 277.443 410.547 277.491 413.886 276.601C418.024 275.795 422.341 276.343 426.377 274.748C428.015 274.103 429.714 274.354 431.227 275.381C433.48 278.258 436.157 280.715 438.807 283.223C440.956 285.27 442.426 288.003 445.094 289.567L445.286 290.361C447.38 292.885 449.463 295.415 451.56 297.931C453.277 299.991 455.015 302.029 456.736 304.088C457.181 304.615 457.493 305.349 458.407 304.96L458.756 305.15C457.966 306.435 459.471 306.726 459.895 307.271C461.83 309.761 464.022 312.046 466.138 314.402C466.441 314.739 466.844 314.848 467.295 314.747C467.366 317.548 469.73 318.883 471.192 320.786C469.923 323.138 469.851 323.09 467.405 321.939C465.758 321.17 463.812 321.311 462.202 320.212C461.439 319.69 460.861 318.541 459.615 318.934C457.776 318.083 455.991 317.003 453.856 317.235C452.946 317.338 452.529 316.453 451.742 316.409C451.151 315.72 450.483 315.253 449.544 315.066C447.34 314.624 445.148 314.112 442.976 313.541C442.11 313.315 441.336 313.25 440.532 313.7C440.191 313.897 439.679 314.281 439.374 313.929C437.238 311.474 434.196 311.956 431.473 311.412C422.253 309.797 413.077 307.909 403.684 307.6C399.57 307.333 395.458 307.059 391.345 306.792C389.901 306.217 388.439 306.412 386.973 306.687C386.454 306.713 386.491 305.823 385.873 306.025C384.576 305.423 383.436 306.309 382.211 306.431C381.325 305.8 380.255 305.729 379.248 305.484C374.161 307.131 369.043 305.162 363.941 305.591C359.131 305.09 354.32 305.334 349.513 305.47C346.045 305.566 342.585 305.862 339.124 306.066C334.977 306.128 330.899 306.695 326.885 307.72L326.843 307.735C325.564 307.963 324.283 308.189 323.001 308.412C321.006 308.718 319.011 309.024 317.012 309.331C313.695 309.717 310.384 310.108 307.068 310.491C303.242 310.745 299.465 311.242 295.858 312.636C293.92 312.823 292.052 313.324 290.199 313.918C284.223 315.553 278.305 317.477 271.992 317.324C268.323 317.231 264.653 317.16 260.985 317.147C260.409 317.141 260.218 316.178 259.546 316.718C256.827 316.332 254.105 315.955 251.385 315.576C249.953 314.927 248.402 314.934 246.883 314.768C246.045 314.361 245.165 314.177 244.239 314.229C237.787 312.34 231.147 311.496 224.497 310.706C222.331 310.45 220.13 310.505 217.943 310.46C217.507 310.456 216.866 310.338 216.837 311.111C216.817 311.648 217.061 311.985 217.583 312.248C222.893 314.883 228.074 317.782 233.669 319.795C234.237 319.992 234.916 319.887 235.544 319.918C237.36 321.462 239.604 322.057 241.814 322.714C253.832 327.534 266.503 329.776 279.124 332.204C281.872 332.778 284.626 333.299 287.45 332.994C288.727 332.868 289.838 333.598 291.079 333.585C293.594 333.906 296.085 334.416 298.642 334.081C304.71 335.109 310.82 335.112 316.945 335C320.07 335.207 323.19 335.028 326.311 334.81C333.355 334.557 340.258 335.806 347.175 336.844C353.939 337.857 360.683 338.038 367.469 337.212C374.336 336.371 381.169 337.556 388.017 337.651C401.725 337.851 415.422 338.131 429.112 336.636C436.809 335.794 444.602 335.594 452.364 336.36C459.578 337.312 466.888 337.093 474.077 338.253C476.802 338.778 479.293 340.166 482.095 340.387C483.974 339.994 485.162 341.041 486.208 342.365C486.341 343.09 487.179 343.093 487.476 343.649C489.521 346.466 491.514 349.328 493.631 352.099C495.284 354.259 496.4 356.797 498.293 358.784C502.538 365.286 506.767 371.799 511.017 378.294C512.173 380.059 513.435 381.76 514.263 383.728C514.555 384.429 514.967 385.181 515.998 384.789C516.03 385.123 516.148 385.48 516.071 385.795C515.887 386.584 515.851 387.852 514.622 386.467C514.34 386.147 513.938 385.994 513.494 386.194C509.538 385.158 505.755 383.604 501.895 382.285C499.846 381.587 497.803 380.884 495.762 380.189C490.31 377.533 484.345 376.54 478.563 375.006C477.905 374.826 477.297 374.055 476.48 374.509C471.468 372.725 466.185 372.21 461 371.245C458.521 370.779 456.016 370.4 453.525 369.976C440.996 367.433 428.459 365.011 415.589 364.9C411.434 364.865 407.28 364.268 403.122 363.927C402.57 363.892 402.012 363.924 401.455 363.92C399.082 363.418 396.685 363.665 394.299 363.64C381.747 363.546 369.201 363.706 356.685 364.664C356.337 364.689 355.99 364.759 355.646 364.808C346.042 364.948 336.434 365.082 326.83 365.225C318.508 365.412 310.18 365.675 301.858 365.755C294.01 365.829 286.172 365.434 278.334 365.035C277.913 365.022 277.49 364.966 277.065 364.97C276.67 364.989 276.07 364.755 275.949 365.25C275.818 365.805 276.448 365.799 276.821 365.908C278.779 366.488 280.713 367.269 282.718 367.6C289.102 368.657 295.339 370.408 301.67 371.702C307.312 372.851 312.71 374.731 318.025 376.899C319.38 377.451 320.799 377.836 322.189 378.296C325.474 379.854 329.008 380.382 332.564 380.828C336.48 381.327 340.389 381.863 344.294 382.381L344.362 382.391L344.434 382.4C358.226 384.696 372.018 386.992 385.807 389.285C392.001 390.611 398.258 391.718 404.553 392.222C413.917 392.968 423.217 394.146 432.485 395.631C435.128 396.056 437.8 395.944 440.462 395.944C452.272 396.403 464.085 396.578 475.895 395.828C480.059 395.955 484.216 396.043 488.379 395.784C490.704 395.652 493.035 395.522 495.369 395.391C500.256 395.647 505.133 395.179 510.019 395.233C513.082 395.262 516.146 395.378 519.213 395.484C519.51 395.493 519.635 395.815 519.647 396.119C520.414 398.622 521.796 400.844 523.074 403.08C526.188 408.567 528.86 414.252 531.226 420.096C531.802 422.587 532.896 424.88 533.985 427.175C534.572 429.415 535.572 431.532 535.907 433.861C536.001 434.486 536.409 435.084 535.528 435.424C531.105 433.169 526.085 432.661 521.567 430.693C519.289 429.694 516.863 429.212 514.454 428.664C503.912 426.268 493.595 422.894 482.821 421.562C482.267 421.494 481.709 421.505 481.151 421.476C480.439 421.153 479.705 420.996 478.921 421.085C477.587 420.861 476.245 420.638 474.907 420.414C473.119 419.774 471.118 420.41 469.377 419.487C464.097 418.822 458.793 418.874 453.484 419.11C448.863 419.005 444.265 418.463 439.613 419.07C436.895 419.428 434.138 418.328 431.334 418.449C430.018 418.512 428.676 418.198 427.341 418.44C422.975 418.105 418.6 417.866 414.242 417.42C408.028 416.786 402.083 414.99 396.167 413.044C392.448 411.821 388.677 410.512 384.823 409.969C382.179 409.606 379.883 408.402 377.332 407.979C373.864 406.743 370.4 405.517 366.926 404.294C366.599 404.18 366.211 404.177 365.907 404.022C365.26 403.69 364.666 402.605 363.942 403.343C363.213 404.083 364.145 404.955 364.546 405.588C366.92 409.292 370.585 411.225 374.445 412.875C374.628 413.039 374.915 413.156 375.297 413.234C381.497 416.871 388.478 418.683 394.978 421.6C398.534 423.617 402.313 425.003 406.342 425.728C406.95 426.091 407.485 426.659 408.308 426.41C410.415 427.746 412.647 428.795 415.112 429.294C415.547 429.398 415.976 429.5 416.411 429.604C421.109 431.413 425.724 433.424 430.53 434.935C432.799 435.716 435.095 436.349 437.512 436.451C444.895 438.355 452.532 438.195 460.037 439.117C466.795 439.952 473.584 439.896 480.378 439.702C481.123 439.678 481.964 439.772 482.49 438.974C482.84 438.443 483.124 438.702 483.455 439.064C483.962 439.62 484.612 439.457 485.235 439.263C491.023 439.447 496.822 440.013 502.591 439.117C505.642 438.649 508.637 439.415 511.664 439.304C512.51 439.313 513.358 439.334 514.209 439.342C517.445 439.635 520.686 439.925 523.927 440.207C524.027 440.242 524.147 440.256 524.295 440.239C530.634 441.506 536.966 442.773 542.503 446.405C542.845 447.593 543.745 448.336 544.578 449.168C546.128 450.712 546.959 452.738 548.008 454.614C549.243 455.349 549.904 454.754 550.143 453.583C550.615 451.272 551.199 448.973 551.287 446.603C551.573 446.995 551.889 447.369 552.202 447.732C552.769 448.391 553.425 448.685 553.737 447.46C553.685 446.634 553.631 445.802 553.58 444.966C554.334 443.307 555.144 441.69 556.335 440.268C557.28 439.129 556.956 437.617 557.207 436.27C559.757 426.094 562.945 416.081 564.966 405.788C565.892 401.094 566.438 396.319 566.701 391.531C567.208 388.053 567.714 384.577 568.216 381.105C570.326 371.441 571.169 361.491 574.519 352.099C576.528 346.462 577.543 340.578 578.048 334.692C578.566 328.706 580.042 323.157 582.754 317.858C582.909 317.567 582.852 317.176 582.89 316.823L582.894 316.822C585.643 310.788 587.153 304.292 589.746 298.195C590.347 296.043 590.951 293.89 591.559 291.747C591.747 291.069 592.128 290.134 591.559 289.784C590.749 289.29 590.551 290.406 590.111 290.855C588.765 292.222 587.849 293.879 586.955 295.553C583.802 299.631 581.467 304.21 578.793 308.587C577.144 311.286 575.144 313.756 573.754 316.616C573.45 317.239 572.936 317.777 572.985 318.542C568.174 325.064 565.5 332.576 562.998 340.163C561.954 342.754 560.842 345.319 560.236 348.064C558.424 352.237 557.417 356.634 556.469 361.049C556.408 361.193 556.366 361.349 556.368 361.524C554.19 367.871 553.736 374.718 551.218 380.903C549.129 386.025 548.467 391.357 547.251 396.613C547.196 397.294 547.267 398.019 547.071 398.663C545.013 405.321 545.627 412.303 544.587 419.08C544.723 419.742 544.359 420.255 544.068 420.782C542.044 422.863 542.014 422.887 540.629 420.368C538.343 416.231 536.096 412.076 533.843 407.927C533.364 406.802 532.891 405.69 532.416 404.572C531.817 403.411 531.761 402.19 532.004 400.93C532.778 398.236 533.556 395.532 534.326 392.828C535.555 390.126 536.046 387.202 536.702 384.348C537.659 380.19 539.132 376.142 539.517 371.851C540.991 369.042 541.088 365.873 541.769 362.867C543.124 356.878 544.132 350.83 544.583 344.696C545.009 340.088 546.582 335.602 546.093 330.888C546.061 330.489 546.031 330.095 545.995 329.697C545.963 326.598 545.938 323.49 545.903 320.4C545.98 315.028 545.632 309.67 545.19 304.317C545.014 302.212 544.849 300.105 544.676 298C544.193 294.076 544.653 290.093 543.899 286.162C542.708 279.899 541.129 273.744 539.267 267.655C537.99 263.484 536.945 259.244 535.07 255.253C534.53 254.114 535.215 252.494 534.404 251.23C534.037 248.536 533.67 245.836 533.307 243.142C533.124 241.415 532.94 239.702 532.758 237.983C532.749 235.732 532.617 233.49 532.27 231.265C532.158 224.843 531.125 218.534 530.065 212.228C529.908 211.335 529.757 210.446 529.606 209.558C529.146 206.018 529.061 202.538 531.001 199.312C531.223 198.954 531.125 198.36 531.056 197.896C530.759 195.85 532.361 194.388 532.669 192.541C533.685 190.276 533.861 187.805 534.469 185.437C535.2 182.581 536.933 180.47 539.203 178.722L539.748 178.427C543.041 173.223 547.646 169.011 550.748 163.675C550.982 163.272 551.379 162.91 551.232 162.121C547.059 164.102 542.261 164.782 539.462 169.009C536.222 171.787 532.721 174.306 530.278 177.917C523.212 183.704 519.396 191.239 518.018 200.206C516.948 207.184 515.457 214.11 514.723 221.146C514.254 225.637 513.949 230.141 513.565 234.645C512.95 238.223 512.586 241.82 512.698 245.457C512.828 258.286 512.009 271.134 513.62 283.949C514.204 288.56 513.97 293.273 514.327 297.923C514.861 304.901 515.579 311.856 516.22 318.835C516.261 319.244 516.223 319.691 516.605 319.991C517.338 321.17 516.372 322.521 516.996 323.706C516.917 324.524 517.078 325.279 517.56 325.953C517.7 326.885 517.837 327.817 517.975 328.751C518.039 330.459 518.4 332.124 518.813 333.779C519.246 338.528 520.422 343.181 520.549 347.963C520.539 350.817 521.118 353.592 521.543 356.391C522.441 362.515 521.975 368.701 522.459 374.859C522.292 377.363 522.808 379.906 522.107 382.389C521.732 382.748 521.476 383.822 520.83 382.65C520.46 381.983 519.98 381.556 519.219 381.443C519.373 380.391 518.489 379.83 518.048 379.082C515.754 375.194 513.404 371.33 511.015 367.494C510.466 366.606 509.813 365.727 509.033 365.041C508.121 364.244 507.211 363.616 507.329 362.177C507.378 361.535 506.728 360.954 506.117 360.837C504.474 360.524 504.155 359.293 503.884 357.973L503.875 357.949C502.805 355.067 501.087 352.513 499.344 350.055C497.829 347.916 497.164 345.218 495.029 343.508C494.148 342.624 495.273 341.063 493.951 340.333C494.314 339.833 494.136 339.345 493.942 338.85C494.484 333.606 495.023 328.362 495.568 323.123C495.981 320.921 496.102 318.699 496.063 316.466C496.665 313.205 496.829 309.914 496.78 306.608C497.093 300.616 497.431 294.631 497.702 288.64C497.863 285.189 497.927 281.738 498.031 278.275C498.277 276.802 498.042 275.338 497.994 273.869C497.728 269.003 496.373 264.288 495.979 259.44C495.941 258.988 495.676 258.654 495.293 258.426C495.279 257.72 495.535 256.978 495.012 256.351C494.004 252.78 492.993 249.217 491.983 245.644C491.807 244.752 491.637 243.869 491.463 242.976C491.022 240.911 490.585 238.846 490.144 236.777C487.723 229.247 484.654 221.978 481.36 214.787C479.348 210.404 478.349 205.667 477.094 201.03C474.559 191.684 472.312 182.254 469.542 172.993C467.743 166.975 466.314 160.867 464.437 154.88C463.575 151.575 462.719 148.271 461.858 144.969C460.17 137.956 458.9 130.866 457.577 123.785C457.507 119.834 456.634 115.983 455.949 112.125C455.563 109.924 454.704 107.807 454.31 105.607C454.141 104.697 453.575 104.606 453.044 104.272C453.912 100.147 451.886 96.3285 451.733 92.3032C451.704 91.6717 451.501 90.8963 450.718 90.9455C450.171 90.9803 449.658 91.3663 449.498 92.1335C448.421 97.3076 448.001 102.519 448.44 107.794C448.008 111.699 448.662 115.556 449.114 119.403C450.078 127.662 451.484 135.87 451.955 144.185C452.537 148.707 452.466 153.292 453.424 157.774C453.797 161.306 454.167 164.835 454.538 168.369C454.723 173.319 455.945 178.147 456.302 183.069C457.372 197.663 459.366 212.136 461.574 226.588C462.185 230.968 462.72 235.352 463.425 239.714C464.465 246.083 465.668 252.431 466.712 258.807C467.126 261.314 467.792 263.749 468.564 266.163C468.983 270.472 470.135 274.639 471.05 278.852C472.273 284.666 474.213 290.292 475.829 295.997C477.136 301.361 478.444 306.721 479.755 312.084C480.792 313.836 481.215 315.627 481.15 317.753C481.089 319.633 481.995 321.54 482.483 323.435C482.432 323.536 482.386 323.637 482.339 323.738C481.99 324.397 481.495 324.712 480.652 324.25C478.439 321.823 476.225 319.41 474.025 316.987C472.669 315.196 471.535 313.207 469.546 311.977C469.417 311.587 469.387 311.12 469.152 310.81C465.559 306.187 462.013 301.515 457.967 297.254C456.591 295.126 454.986 293.177 453.282 291.322C450.759 288.577 448.746 285.444 446.616 282.406C445.919 281.404 445.709 280.219 445.478 279.052C445.086 273.151 444.634 267.254 443.345 261.466C442.152 256.111 441.332 250.686 440.476 245.263C440.458 243.305 439.882 241.456 439.324 239.606C439.225 238.924 439.125 238.239 439.025 237.554C438.775 232.776 437.936 228.072 437.18 223.365C436.546 219.406 435.688 215.489 434.931 211.552C434.782 208.508 433.541 205.666 433.235 202.655C432.985 199.492 431.308 196.818 430.252 193.931C428.116 188.126 425.94 182.328 423.775 176.528C423.157 174.272 422.248 172.132 421.182 170.049C421.266 169.014 420.368 168.397 420.092 167.518C416.418 157.403 411.852 147.684 406.798 138.189C405.283 135.345 404.186 132.28 402.367 129.585C399.633 123.892 396.895 118.195 394.162 112.502C390.93 104.927 387.597 97.4011 384.034 89.9771C381.685 85.0837 379.455 80.1484 377.167 75.2311C376.991 74.8477 376.761 74.497 376.554 74.1342C374.83 69.577 373.07 65.0391 370.633 60.79C369.846 59.4322 369.555 60.0182 369.066 60.9288C368.463 62.0454 368.433 63.2279 368.561 64.4335C369.572 74.077 371.559 83.5602 372.942 93.1401C373.334 95.8641 373.599 98.6077 373.921 101.338C373.933 102.291 373.941 103.241 373.96 104.196C373.515 108.724 374.535 113.159 374.76 117.646C375.319 126.754 376.398 135.796 378.431 144.712C378.886 148.43 379.429 152.115 381.083 155.545C381.376 156.157 381.445 156.869 381.609 157.53C381.95 162.522 383.595 167.151 385.337 171.789C387.865 178.523 390.392 185.239 394.063 191.453C394.346 191.936 394.696 192.383 395.011 192.843C395.922 194.601 396.873 196.332 398.104 197.895C401.881 204.197 405.655 210.497 409.418 216.802C411.877 220.93 414.344 225.057 416.53 229.336C416.836 229.945 416.933 230.728 417.705 231.019C420.087 236.246 422.456 241.481 424.861 246.706C425.403 247.887 425.692 249.271 427.08 249.884L427.466 250.342C428.084 255.062 430.908 258.844 432.893 262.971C433.764 264.78 433.816 266.447 433.338 268.265C432.583 269.739 431.682 269.742 430.522 268.646C429.001 267.196 427.397 265.822 425.827 264.423C425.667 263.765 425.189 263.409 424.593 263.191C423.774 261.973 422.486 261.26 421.456 260.264C417.257 255.583 412.411 251.595 407.75 247.415C406.333 246.145 404.98 244.807 403.597 243.503C403.531 243.426 403.465 243.352 403.401 243.287C399.724 239.25 395.338 235.977 391.48 232.136C390.644 231.296 390.08 230.176 388.953 229.634C387.727 227.734 385.617 226.603 384.54 224.573C383.421 223.271 384.187 221.757 384.045 220.346C384.488 219.837 384.693 219.311 384.362 218.624C380.659 210.987 377.302 203.211 374.605 195.151C373.864 192.233 373.125 189.317 372.388 186.403C371.739 181.174 369.84 176.306 367.951 171.447C366.912 168.791 366.157 165.99 364.33 163.672C363.962 163.208 364.589 162.332 363.869 161.861C359.67 151.396 354.423 141.453 349.087 131.551C347.088 128.225 345.266 124.792 342.935 121.676C342.444 120.514 341.936 119.36 341.015 118.462C334.831 113.169 330.305 106.462 325.326 100.142C320.335 93.8115 314.764 87.9838 309.536 81.854C308.639 80.6291 307.78 79.3693 306.618 78.3573C306.036 77.5371 305.452 76.7092 304.623 76.102C299.4 70.9552 294.182 65.808 288.949 60.6738C282.746 54.5912 276.616 48.4316 270.669 42.1023C269.461 40.8212 268.149 39.636 266.885 38.4108C261.284 32.8184 255.866 27.0718 250.964 20.8411C247.693 16.6908 244.254 12.6644 240.889 8.58006C239.563 5.83924 237.532 3.57628 235.782 1.12353C235.333 0.490006 234.793 -0.306177 233.908 0.120428C232.939 0.590668 233.223 1.60279 233.488 2.35808C234.879 6.35144 236.297 10.3343 237.784 14.2904C238.623 16.5092 238.956 18.9616 240.657 20.8042C241.07 21.5223 241.485 22.2362 241.903 22.9555C241.728 23.5787 242.1 23.9848 242.491 24.3715C243.858 29.0081 246.644 32.9698 248.59 37.3358C249.881 40.2185 251.253 43.0654 252.527 45.9653C253.129 47.3337 253.906 48.5757 254.848 49.7228C255.345 50.9513 256.235 52.0083 256.505 53.3517C256.622 53.937 256.956 54.4335 257.56 54.5727C258.721 54.8446 259.235 55.5093 259.281 56.7181C259.404 59.7725 261.316 62.0025 262.815 64.4712C266.228 70.0729 269.462 75.7879 272.774 81.4542C273.223 82.6994 273.802 83.8864 274.66 84.9142C277.176 90.0904 280.923 94.4743 283.913 99.3533C287.602 105.368 291.323 111.373 295.364 117.186C298.893 122.251 303.237 126.648 306.847 131.638C307.637 132.725 308.411 133.819 309.193 134.907C311.648 137.994 314.122 141.056 316.552 144.158C319.989 148.532 323.225 153.065 326.859 157.258C329.759 160.586 332.372 164.204 335.722 167.132C336.939 167.553 336.996 168.83 337.598 169.7C338.111 170.443 338.47 171.313 339.318 171.772C341.215 175.77 344.218 178.931 347.114 182.183C348.384 184.08 349.5 186.093 351.293 187.588C351.495 188.244 351.896 188.749 352.474 189.11C353.345 190.324 354.216 191.542 355.42 192.467C356.568 193.845 357.585 195.346 359.052 196.43C359.225 196.718 359.328 197.115 359.578 197.299C361.695 198.839 362.004 199.44 363.023 202.072C363.485 203.253 364.481 204.235 365.235 205.307C365.472 206.023 366.229 206.531 366.069 207.415C365.219 208.796 364.347 207.906 363.482 207.443C361.778 206.141 360.072 204.844 358.371 203.544C354.712 199.812 350.359 196.907 346.3 193.669C342.221 190.409 338.523 186.748 334.546 183.396C329.962 179.533 325.481 175.552 320.331 172.437C319.763 171.539 318.81 171.133 317.968 170.589C315.356 167.81 312.396 165.434 309.451 163.031C304.757 159.194 301.537 154.075 297.578 149.604C297.111 149.074 296.648 148.557 296.176 148.039C296.166 147.633 295.913 147.423 295.579 147.28C294.978 146.421 294.367 145.577 293.47 144.993C288.291 138.273 283.437 131.293 277.468 125.204C276.329 125.081 276.516 123.724 275.709 123.294C271.88 117.748 266.633 113.574 261.932 108.859C256.76 104.42 251.577 100.004 246.425 95.5393C244.994 94.2999 243.655 92.9622 242.273 91.656C242.193 90.731 240.782 91.1845 240.758 90.1939C237.668 87.7552 234.636 85.2413 231.481 82.8846C226.026 78.816 219.954 75.76 214.057 72.4223C212.96 71.8041 211.895 71.1152 210.817 70.4641C205.652 67.7137 200.639 64.6954 195.346 62.1948C193.228 61.3584 191.111 60.5199 188.992 59.6797C184.938 57.8797 180.898 56.0224 176.806 54.2897C174.462 53.3035 172.41 51.7044 169.913 51.0475C169.001 50.5854 168.244 49.7593 167.109 49.799C165.878 49.1284 164.647 48.4653 163.417 47.7925C158.193 44.9603 152.542 43.0165 147.352 40.1115C142.844 37.5845 138.264 35.2034 133.436 33.3499C127.464 31.3588 122.037 28.2324 116.47 25.3878C114.548 24.4014 112.641 23.3579 110.503 22.865C107.401 20.7862 103.826 19.4783 101.01 16.9273C100.452 16.438 99.6052 16.1625 99.1434 16.8668C98.6542 17.601 99.5597 17.8855 100.043 18.2046C103.396 20.4265 106.229 23.2844 109.31 25.8447C109.849 26.2843 110.465 26.6407 111.037 27.0345C114.022 29.4789 116.945 31.9951 119.995 34.3403C122.378 36.1774 124.918 37.8114 127.389 39.5295C132.065 43.484 136.682 47.512 141.442 51.3614C145.393 54.5572 149.49 57.5739 153.565 60.6239C155 61.7037 156.524 62.699 158.489 62.2886C158.86 62.7523 159.231 63.2199 159.6 63.6819C161.75 65.6883 163.783 67.8418 166.072 69.6623C175.255 76.9588 184.119 84.7005 194.862 89.7996C198.234 91.4002 201.305 93.6279 204.515 95.5721C210.528 99.6392 216.456 103.835 222.477 107.891C229.323 112.506 235.767 117.686 242.244 122.806C246.18 125.918 250.588 128.34 254.862 130.953C255.927 132.021 257.231 132.778 258.555 133.423C263.869 136.054 268.869 139.307 274.459 141.386C276.537 142.57 278.62 143.752 280.703 144.933C282.184 145.784 283.671 146.628 285.155 147.474C291.991 152.928 298.843 158.366 305.644 163.871C306.441 164.515 307.914 164.605 307.824 166.133C307.04 167.425 306.115 167.212 304.967 166.567C300.104 163.814 294.995 161.544 289.897 159.27C289.651 159.162 289.351 159.17 289.08 159.125C277.742 155.046 267.869 148.156 257.268 142.653C254.749 141.342 252.111 140.244 249.879 138.421C249.705 138.285 249.336 138.387 249.059 138.371C242.416 135.382 235.754 132.419 229.13 129.389C219.346 124.912 209.187 121.353 199.213 117.355C198.823 117.195 198.398 117.13 197.982 117.024C190.895 113.889 183.781 110.819 176.418 108.368C171.897 106.525 167.373 104.646 162.644 103.38C162.328 103.296 161.967 103.362 161.629 103.357C161.343 101.612 159.549 102.012 158.651 101.753C154.446 100.549 150.438 98.7514 146.177 97.7504C141.914 96.2915 137.66 94.7951 133.382 93.3723C123.076 89.9414 112.765 86.5342 102.448 83.1256C94.8699 80.6295 87.1312 78.7031 79.4124 76.6959C77.4864 76.197 75.652 75.3258 73.6179 75.2414C73.0834 74.9125 72.5642 74.513 71.8689 74.66C66.264 73.0639 60.6939 71.3472 54.9119 70.4455C51.4241 69.9027 47.9004 69.9256 44.4021 69.6198C41.6731 68.5108 38.6654 69.3075 35.9452 68.4373C33.9374 67.7863 31.9986 68.0999 30.0124 68.0851C29.5847 68.0839 29.4003 68.3265 29.1465 68.548C26.8833 67.0525 24.2054 67.2705 21.6984 66.8065C19.6493 66.4265 17.5005 66.1706 15.4624 66.2248C13.2842 66.277 11.1347 66.1899 8.97099 66.112C7.21013 66.0361 5.46452 66.6431 3.6804 66.1268C2.20853 65.6953 1.32742 67.1588 -2.92132e-05 67.4516C2.77138 66.9319 5.11841 68.4047 7.60794 69.0069C8.89732 69.3126 10.1384 69.5278 11.4333 69.6029C14.5241 70.1105 17.3603 71.6028 20.6837 71.3084C22.2563 71.1709 23.932 72.3261 25.5721 72.8581C32.6463 75.1256 39.7581 77.2816 46.5963 80.2135C53.8485 83.7405 61.2829 86.8123 68.8242 89.6864C84.1551 95.5129 99.4026 101.56 114.708 107.435C120.046 109.48 125.47 111.301 130.86 113.198C131.265 113.34 131.726 113.817 132.191 113.264C132.478 113.104 132.756 112.943 133.038 112.793C133.465 114.681 135.101 114.94 136.579 115.415C143.679 118.145 150.841 120.691 158.118 122.913C159.298 123.588 160.571 123.991 161.91 124.209C165.285 125.328 168.656 126.451 172.033 127.562C172.488 127.71 172.978 127.771 173.452 127.875C174.525 128.411 175.66 128.766 176.835 128.987L176.837 128.989L176.858 128.992L176.88 128.995C186.223 132.002 195.563 135.004 205.05 137.525C210.084 138.863 215.079 140.367 220.088 141.792C221.032 142.464 222.068 142.887 223.214 143.044C228.889 145 234.507 147.132 240.445 148.187C242.414 148.513 244.301 149.253 246.337 149.253C247.399 149.248 248.407 149.297 249.17 148.385C249.666 149.322 250.433 149.749 251.495 149.92C260.377 151.288 268.731 154.649 277.402 156.805C279.051 157.213 280.448 158.082 281.756 159.27C283.435 160.795 285.847 161.124 287.779 162.308C292.25 164.674 296.695 167.078 301.2 169.381C302.144 169.863 302.854 170.404 303.217 171.381C302.63 172.392 301.759 172.436 300.864 171.939C296.084 169.277 290.714 168.453 285.568 166.949C285.002 166.796 284.445 166.642 283.884 166.492C278.675 164.855 273.285 164.06 267.943 163.062C259.066 161.408 250.296 159.082 241.299 158.13C235.411 157.506 229.62 156.297 223.744 155.637C221.191 155.036 218.596 154.764 215.987 154.608C215.665 154.488 215.362 154.276 215 154.477C212.612 154.122 210.221 153.772 207.835 153.415C200.781 151.945 193.64 151.135 186.479 150.522C178.06 149.799 169.606 149.677 161.189 148.858C157.995 148.544 154.767 148.625 151.555 148.535C143.091 148.571 134.645 147.573 126.171 148.091C122.126 148.027 118.079 147.962 114.031 147.893C113.173 147.881 112.321 147.861 111.468 147.847C108.056 147.589 104.648 147.837 101.237 147.94C95.2689 147.58 89.3925 148.234 83.5872 149.592C74.5302 151.723 65.5538 154.258 56.1918 154.775C55.748 154.803 55.0414 154.671 55.0348 155.329C55.0358 155.759 55.6752 155.802 56.0877 155.822C69.8205 156.487 83.2619 158.906 96.5656 162.31C100.453 163.298 104.413 164.127 108.44 164.48C113.011 165.319 117.582 166.161 122.154 167.003C123.473 167.271 124.791 167.541 126.115 167.805C130.706 168.674 135.296 169.549 139.886 170.42C141.197 170.673 142.513 170.932 143.827 171.191C149.606 172.54 155.509 173.079 161.382 173.868C170.401 175.083 179.422 176.29 188.446 177.498C191.183 177.688 193.877 178.828 196.667 177.863C207.15 180.406 217.894 180.587 228.573 181.323C240.844 182.159 253.137 182.727 265.442 182.463C272.78 182.308 280.111 181.75 287.441 181.409C289.125 181.33 290.81 181.414 292.492 181.43C298.57 181.325 304.653 181.296 310.733 181.069C312.32 181.008 313.883 180.323 315.457 179.925C316.289 179.905 317.125 179.881 317.962 179.854C319.447 179.782 320.844 180.247 321.843 181.242C328.991 188.395 337.601 193.8 345.068 200.565C348.556 203.729 352.034 206.911 355.518 210.085C356.046 210.586 356.569 211.085 357.093 211.581C356.623 213.811 354.544 214.997 352.17 214.221C348.906 213.15 345.593 212.342 342.2 211.845C338.052 211.069 333.904 210.297 329.753 209.526C327.21 208.625 324.54 208.248 321.894 207.866C314.076 206.736 306.509 204.101 298.518 204.06L297.905 204.118C292.645 203.78 287.521 202.377 282.194 202.403C273.473 202.437 264.74 202.118 256.015 201.951C255.6 201.946 255.185 202.024 254.771 202.066C249.499 201.735 244.226 202.055 238.956 202.148C236.14 202.197 233.312 202.052 230.508 202.432C226.549 202.742 222.589 203.012 218.636 203.375C208.725 204.292 198.814 205.24 188.902 206.176C180.628 206.548 172.455 207.785 164.337 209.332C160.741 210.013 157.204 210.982 153.64 211.823C151.316 212.405 148.986 212.978 146.668 213.578C146.279 213.684 145.657 213.697 145.652 214.173C145.645 214.793 146.321 214.821 146.773 214.869C149.632 215.239 152.496 215.564 155.356 215.907C162.526 217.547 169.778 218.629 177.109 219.212C181.411 220.015 185.774 219.915 190.113 220.25C194.637 220.601 199.144 221.101 203.654 221.542C203.799 221.576 203.968 221.594 204.163 221.592C212.368 223.36 220.781 222.861 229.046 223.883C232.621 224.326 236.171 224.954 239.729 225.491C240.46 225.804 241.218 225.953 242.018 225.887C246.619 226.39 251.22 226.89 255.821 227.386L256.368 227.376C263.327 228.224 270.277 229.174 277.275 229.594C278.17 229.651 279.083 229.427 279.989 229.332C287.749 229.547 295.504 229.775 303.224 228.524C304.668 228.29 306.191 228.424 307.657 228.553C310.992 228.852 314.293 228.744 317.605 228.323C323.342 227.592 329.133 227.26 334.833 226.205C337.155 225.926 339.469 225.637 341.787 225.354C344.481 225.55 347.168 225.606 349.757 224.663C353.902 223.165 358.236 223.239 362.539 223.016C363.165 222.99 363.791 222.877 364.412 222.805C366.713 223.28 369.087 222.731 371.408 223.603C373.016 224.206 374.403 225.04 375.807 225.935C376.489 227.319 378.038 227.591 379.111 228.484C380.913 229.952 382.856 231.248 384.745 232.624C390.057 237.745 395.213 243.035 401.391 247.163C406.113 251.956 410.955 256.621 415.994 261.071C416.409 261.432 416.958 261.634 417.451 261.916C418.135 262.904 418.623 263.901 417.615 264.989C417.223 265.09 416.834 265.192 416.439 265.296C413.91 264.123 411.122 264.112 408.458 263.559C405.238 262.889 401.973 262.439 398.731 261.896C397.978 261.766 397.23 261.639 396.474 261.508C391.066 260.015 385.481 259.372 380.016 258.196C378.16 257.795 376.294 257.489 374.434 257.14C367.354 255.594 360.309 253.955 353.08 253.129C346.914 252.42 340.806 251.198 334.563 251.309C333.86 251.315 333.16 251.351 332.459 251.376C328.64 250.875 324.833 251.424 321.025 251.447C312.036 251.51 303.05 250.93 294.067 251.419C292.9 251.478 291.739 251.593 290.578 251.678C288.321 251.781 286.06 251.881 283.806 251.979C280.338 252.088 276.994 253.092 273.562 253.428C266.048 254.18 258.539 254.99 251.032 255.776C247.955 256.099 244.853 256.274 241.88 257.251C237.217 257.509 232.601 258.191 227.99 258.865C223.512 259.522 219.024 260.018 214.498 260.205C213.453 260.244 212.416 260.49 211.378 260.642C203.158 262.38 194.942 264.119 186.72 265.856C186.376 265.932 186.028 266.012 185.707 266.149C185.261 266.343 184.624 266.534 184.678 267.078C184.731 267.588 185.362 267.797 185.842 267.85C191.925 268.531 197.919 269.965 204.089 269.872C211.259 271.425 218.369 273.054 225.779 273.534C230.412 273.835 235.128 274.734 239.767 275.607C240.648 275.772 241.567 275.742 242.473 275.799C247.824 276.475 253.178 277.144 258.531 277.808L258.568 277.814ZM544.093 432.234L544.054 432.244C544.053 432.177 544.063 432.116 544.082 432.062L544.093 432.234ZM520.712 215.594C520.75 215.556 520.792 215.524 520.84 215.5C520.795 215.53 520.753 215.565 520.713 215.602L520.709 215.598L520.712 215.594ZM521.741 237.625L521.831 237.469L521.85 237.626C521.812 237.623 521.776 237.625 521.741 237.625ZM528.314 229.437C528.153 229.581 527.977 229.616 527.716 229.303C527.456 228.994 527.568 228.825 527.761 228.696C527.805 228.904 527.981 229.107 528.312 229.439L528.314 229.437ZM528.856 220.211C528.698 220.115 528.665 219.992 528.713 219.871C528.776 219.984 528.823 220.097 528.856 220.211ZM153.929 107.518C153.911 107.472 153.911 107.424 153.929 107.372L153.929 107.518ZM279.911 130.238L279.9 130.23L279.921 130.222L279.911 130.238ZM313.182 326.71L313.171 326.723L313.17 326.707L313.182 326.71ZM122.069 162.971L122.054 162.951L122.072 162.963L122.068 162.973L122.069 162.971ZM122.038 162.984L122.063 162.966L122.068 162.98L122.036 162.982L122.038 162.984ZM223.513 266.703C223.366 266.654 223.208 266.613 223.038 266.584C223.191 266.561 223.335 266.532 223.471 266.496C223.475 266.565 223.488 266.634 223.513 266.703ZM476.474 239.152L476.464 239.138L476.484 239.139L476.474 239.152ZM480.482 273.769L480.487 273.703C480.551 273.744 480.58 273.798 480.482 273.769ZM487.339 288.42C487.283 288.437 487.235 288.437 487.191 288.415L487.339 288.42ZM556.137 409.827L556.211 409.738C556.225 409.867 556.195 409.866 556.137 409.827ZM564.174 374.179L564.271 374.191L564.163 374.226L564.176 374.18L564.174 374.179ZM474.585 389.722L474.68 389.556C474.672 389.622 474.662 389.687 474.648 389.751L474.585 389.722ZM476.201 393.535L476.252 393.584L476.142 393.592L476.201 393.535ZM252.952 123.722C252.93 123.611 252.909 123.504 252.895 123.396C252.933 123.448 252.971 123.495 253.011 123.541L252.952 123.722ZM535.608 311.972L535.644 311.859L535.666 311.974L535.608 311.972ZM313.043 210.65C313.035 210.664 313.024 210.677 313.012 210.688L313.043 210.65ZM307.22 221.898L307.242 221.88L307.236 221.913L307.218 221.896L307.22 221.898ZM428.774 219.842L428.716 219.802L428.755 219.779L428.774 219.842ZM425.307 219.699C425.217 219.755 425.119 219.791 425.022 219.813C425.117 219.768 425.211 219.733 425.307 219.699ZM411.712 375.787C411.791 375.74 411.874 375.693 411.959 375.647L411.82 375.871C411.793 375.832 411.757 375.803 411.712 375.787ZM403.188 370.068C403.168 370.238 403.102 370.399 402.965 370.518L403.188 370.068ZM401.497 373.263C401.607 373.427 401.791 373.543 401.584 373.702C401.495 373.769 401.416 373.837 401.342 373.909C401.38 373.684 401.433 373.467 401.497 373.263ZM389.71 378.183L389.708 378.182L389.71 378.18L389.71 378.183ZM526.811 252.442L527.048 252.376C527.025 252.431 527.006 252.484 526.989 252.544C526.928 252.508 526.871 252.476 526.813 252.444L526.811 252.442ZM330.869 133.48C330.835 133.557 330.72 133.602 330.46 133.598C330.428 133.6 330.395 133.594 330.361 133.588C330.521 133.57 330.691 133.534 330.871 133.478L330.869 133.48ZM213.619 166.449C213.642 166.464 213.67 166.476 213.704 166.486C213.651 166.491 213.596 166.495 213.536 166.496L213.545 166.486L213.614 166.451L213.619 166.449ZM410.937 190.194C410.891 190.119 410.855 190.042 410.826 189.967C410.88 190.042 410.925 190.119 410.957 190.196L410.939 190.192L410.937 190.194ZM410.906 190.186L410.937 190.194L410.931 190.224L410.906 190.186ZM290.212 313.966L290.214 313.913C290.214 313.93 290.212 313.949 290.212 313.966ZM289.545 254.171L289.348 254.123C289.434 254.081 289.502 254.087 289.545 254.171ZM237.734 93.5944L237.733 93.5906L237.737 93.5864L237.735 93.5923L237.734 93.5944ZM322.756 312.162L322.736 312.195L322.704 312.183L322.758 312.164L322.756 312.162ZM9.0147 66.8972L9.0757 66.9289C9.05171 66.92 9.0332 66.9086 9.0147 66.8972ZM351.48 187.565C351.426 187.577 351.37 187.587 351.318 187.591L351.48 187.565ZM326.857 307.729C326.812 307.859 326.763 307.989 326.714 308.119C326.647 307.996 326.662 307.869 326.857 307.729ZM323.853 312.656L323.82 312.65L323.857 312.607L323.853 312.656ZM111.118 26.0344L110.877 25.986C110.527 25.9226 110.276 25.7353 110.516 25.5096L110.572 25.4575C110.711 25.6628 110.895 25.8517 111.118 26.0344ZM544.047 342.578L544.063 342.567L544.07 342.601L544.048 342.576L544.047 342.578ZM485.085 394.982L485.235 395.05L485.205 395.078C485.171 395.113 485.133 395.072 485.085 394.982ZM488.206 395.766L488.397 395.791C488.332 395.791 488.268 395.784 488.206 395.766ZM193.284 63.3982L193.328 63.378C193.345 63.4126 193.358 63.4475 193.366 63.4812C193.338 63.4555 193.31 63.4298 193.284 63.3982ZM385.002 311.545L385.026 311.498L385.037 311.535L385.002 311.545ZM532.733 247.482L532.853 247.109C532.839 247.247 532.803 247.373 532.733 247.482ZM566.51 391.399C566.59 391.428 566.663 391.466 566.72 391.52C566.64 391.486 566.571 391.448 566.51 391.399ZM383.203 150.309C383.055 150.419 382.934 150.522 382.837 150.627C382.905 150.426 383.069 150.26 383.203 150.309ZM284.23 328.781L284.236 328.786L284.231 328.789L284.23 328.781ZM524.331 393.557L524.691 393.531L524.471 393.676C524.421 393.639 524.373 393.6 524.331 393.557ZM284.149 175.614C284.265 175.513 284.553 175.769 284.686 176.052L284.149 175.614ZM370.801 222.521C370.703 222.553 370.608 222.529 370.52 222.389C370.601 222.433 370.694 222.477 370.801 222.521ZM536.693 430.635L536.611 430.586C536.688 430.499 536.727 430.472 536.693 430.635ZM247.686 320.619C247.728 320.528 247.801 320.449 247.922 320.393C247.847 320.457 247.766 320.531 247.686 320.619ZM344.471 173.776C344.468 173.853 344.467 173.936 344.471 174.018L344.358 173.848C344.396 173.827 344.434 173.805 344.473 173.774L344.471 173.776ZM527.485 235.34C527.514 235.239 527.545 235.136 527.582 235.03C527.615 235.14 527.642 235.248 527.667 235.354C527.6 235.342 527.541 235.339 527.485 235.34ZM288.71 147.611C288.786 147.551 288.8 147.576 288.779 147.649L288.71 147.611ZM397.141 267.468C397.177 267.479 397.214 267.489 397.246 267.497L397.135 267.733L397.139 267.47L397.141 267.468ZM203.278 68.0653L203.29 68.0333L203.299 68.0649L203.278 68.0653ZM324.668 283.101L324.766 283.117L324.664 283.253L324.668 283.101ZM327.007 282.604L327.034 282.608L327.023 282.635L327.007 282.608L327.007 282.604ZM345.063 284.372C345.152 284.399 345.237 284.436 345.322 284.48L345.063 284.372ZM161.383 111.763C161.148 111.858 160.935 111.856 160.789 111.625C160.985 111.682 161.184 111.731 161.383 111.763ZM521.369 430.88C521.421 430.777 521.486 430.7 521.58 430.686C521.509 430.775 521.439 430.836 521.369 430.88ZM163.242 62.8138C163.617 62.7997 163.777 62.7554 163.447 63.1232C163.383 63.0132 163.314 62.9095 163.242 62.8138ZM163.874 63.9566C164.005 63.9691 164.057 64.0555 164.053 64.215C163.991 64.1375 163.932 64.0519 163.874 63.9566ZM362.996 256.123C362.718 256.107 362.477 256.124 362.249 256.176C362.31 255.914 362.3 255.595 362.189 255.195C362.458 255.545 362.724 255.855 362.996 256.119L362.996 256.123ZM577.85 318.933C578.019 318.813 578.185 318.718 578.38 318.733C578.238 318.816 578.056 318.883 577.85 318.933ZM485.32 274.078L485.424 273.767C485.667 273.946 485.776 274.112 485.813 274.273C485.612 274.174 485.451 274.107 485.321 274.075L485.32 274.078ZM403.427 311.532C403.538 311.441 403.703 311.404 404.018 311.55C403.874 311.669 403.76 311.823 403.664 311.991C403.61 311.848 403.53 311.697 403.426 311.534L403.427 311.532ZM414.885 314.083L414.904 314.081L414.886 314.139L414.884 314.085L414.885 314.083ZM530.537 394.968L530.514 394.967L530.53 394.952L530.537 394.968ZM524.011 324.481L524.078 324.449L524.095 324.483L524.011 324.481ZM556.372 435.593C556.196 435.631 556.034 435.626 555.969 435.435C555.835 435.048 555.987 434.509 556.003 434.045C556.075 434.525 556.173 435.005 556.312 435.482L556.372 435.593ZM555.942 433.557C555.818 433.23 555.478 433.008 554.654 433.035C554.347 433.047 554.773 432.705 554.883 432.582C555.291 432.074 555.748 431.521 555.472 430.871C555.229 430.299 554.989 429.474 554.011 429.767C554.248 429.321 554.645 428.976 554.787 428.468C554.985 427.787 555.176 427.11 555.315 426.416L555.45 425.792C555.668 424.813 555.286 424.437 554.326 424.72C554.1 424.795 553.753 424.848 553.784 425.24C553.566 424.836 554.011 424.827 554.15 424.741C555.145 424.126 555.376 423.257 555.158 422.184C554.955 421.15 554.112 421.261 553.357 421.087C551.566 420.665 550.986 418.869 549.801 417.748C549.542 417.502 549.785 416.972 550.219 417.016C551.76 417.181 553.069 415.719 554.732 416.511C555.598 416.927 556.077 416.067 556.719 415.659C556.954 418.7 556.517 421.723 556.435 424.723C556.358 427.644 555.626 430.61 555.939 433.562L555.942 433.557ZM458.069 427.914L457.814 427.823C457.91 427.81 458.006 427.794 458.1 427.776C458.086 427.82 458.076 427.867 458.069 427.914ZM261.739 56.1502L261.65 56.2002C261.636 56.1614 261.624 56.1206 261.614 56.0814C261.653 56.1059 261.698 56.1278 261.74 56.1481L261.739 56.1502ZM146.633 155.109L146.681 155.072L146.665 155.125L146.633 155.109ZM178.959 117.277L178.974 117.285L178.96 117.281L178.961 117.275L178.959 117.277ZM392.619 112.636C392.653 112.767 392.625 112.862 392.474 112.882C392.524 112.802 392.573 112.72 392.619 112.636ZM388.499 138.656C388.714 138.618 388.949 138.647 389.142 138.782C388.91 138.769 388.698 138.723 388.499 138.656ZM318.608 375.182C318.523 375.228 318.44 375.279 318.359 375.338L318.476 375.097L318.516 375.125L318.608 375.182ZM319.894 368.496L319.81 368.346C319.879 368.373 319.943 368.404 320.002 368.434C319.962 368.454 319.928 368.475 319.894 368.496ZM281.565 227.278C281.694 227.458 281.737 227.607 281.468 227.709C281.168 227.82 280.949 227.697 280.772 227.444C281.141 227.398 281.398 227.352 281.565 227.278ZM218.253 85.0865C218.78 85.0079 219.148 85.1958 219.138 85.797C218.837 85.479 218.543 85.2428 218.253 85.0865ZM264.912 38.7589C265.018 38.7128 265.125 38.6915 265.245 38.7532L264.912 38.7589ZM480.235 423.392C480.135 423.698 480.029 423.894 479.928 423.405C480.043 423.403 480.144 423.398 480.235 423.392ZM348.394 376.284C348.402 376.239 348.42 376.195 348.441 376.156L348.394 376.284ZM423.392 234.094C423.282 234.158 423.195 234.158 423.155 234.04C423.24 234.055 423.316 234.072 423.392 234.094ZM469.225 210.466C469.237 210.296 469.323 210.219 469.609 210.345C469.683 210.377 469.763 210.403 469.849 210.424C469.653 210.432 469.447 210.447 469.225 210.466ZM337.225 148.501L336.831 148.678C336.756 148.681 336.609 148.562 336.425 148.374C336.663 148.422 336.93 148.464 337.227 148.503L337.225 148.501ZM317.234 122.527C317.148 122.506 317.068 122.476 317.007 122.431C316.576 122.137 316.748 121.777 317.04 121.482C316.998 121.746 317.061 122.042 317.234 122.527ZM401.025 364.279C401.125 364.09 401.261 363.951 401.475 363.921C401.333 364.05 401.183 364.168 401.025 364.279ZM423.667 178.256C423.854 178.424 423.847 178.622 423.732 178.782C423.713 178.608 423.688 178.432 423.667 178.256ZM205.814 176.765L205.821 176.877C205.77 176.868 205.721 176.859 205.671 176.853L205.814 176.765Z" fill="#EBECEC" fill-opacity="0.48"/>
</svg>
